if (_typeface_js && _typeface_js.loadFace) _typeface_js.loadFace({"glyphs":{"S":{"x_min":79,"x_max":1048,"ha":927,"o":"m 658 463 l 720 384 l 756 340 q 861 68 861 212 q 768 -176 861 -71 q 438 -321 642 -321 q 179 -223 280 -321 q 79 25 79 -126 q 236 335 79 211 q 390 401 319 401 q 449 379 426 401 q 473 325 473 358 q 419 248 473 280 l 365 215 q 287 133 318 186 q 256 30 256 81 q 310 -102 256 -49 q 449 -155 365 -155 q 610 -85 542 -155 q 679 78 679 -15 q 651 186 679 138 q 531 338 623 235 q 439 463 467 409 l 256 463 q 163 527 163 463 q 195 599 163 574 q 288 625 228 625 l 404 625 q 527 847 417 759 q 788 935 636 935 q 975 871 903 935 q 1048 708 1048 808 q 933 503 1048 574 q 726 463 868 463 l 658 463 m 577 625 l 739 625 q 878 704 878 625 q 849 755 878 736 q 774 774 821 774 q 641 728 701 774 q 577 625 581 683 "},"¦":{"x_min":262,"x_max":434,"ha":695,"o":"m 262 926 l 434 926 l 434 447 l 262 447 l 262 926 m 262 213 l 434 213 l 434 -231 l 262 -231 l 262 213 "},"/":{"x_min":74,"x_max":617,"ha":522,"o":"m 85 -126 l 490 909 q 565 973 514 973 q 602 959 587 973 q 617 927 617 946 q 605 886 617 914 l 200 -149 q 126 -213 176 -213 q 89 -200 104 -213 q 74 -168 74 -187 q 80 -138 74 -155 l 85 -126 "},"y":{"x_min":-185,"x_max":638,"ha":595,"o":"m 451 -28 l 529 -28 q 616 -88 616 -28 q 585 -152 616 -129 q 501 -176 555 -176 l 391 -176 q 320 -330 371 -234 q 59 -500 230 -500 q -114 -434 -43 -500 q -185 -273 -185 -369 q -146 -148 -185 -206 q -46 -61 -108 -90 q 166 -28 25 -28 l 276 -28 l 296 21 q 204 0 246 0 q 86 36 131 0 q 41 132 41 73 q 70 240 41 168 l 144 423 l 151 442 q 253 519 184 519 q 302 500 282 519 q 323 451 323 481 q 305 388 323 432 l 238 226 q 222 175 222 186 q 264 142 219 142 q 327 160 295 142 q 369 201 360 178 l 460 423 l 466 442 q 568 519 498 519 q 617 499 597 519 q 638 451 638 480 q 627 406 638 432 l 619 388 l 451 -28 m 229 -176 l 134 -176 q -22 -273 -22 -176 q 0 -329 -22 -308 q 56 -350 20 -350 q 144 -311 106 -350 q 229 -176 183 -272 "},"≈":{"x_min":9.5,"x_max":684.328125,"ha":695,"o":"m 103 483 l 9 545 q 99 693 54 652 q 218 735 145 735 q 362 697 263 735 q 486 663 453 663 q 540 678 519 663 q 587 737 562 694 l 684 680 q 587 538 636 579 q 465 498 538 498 q 326 535 427 498 q 206 570 234 570 q 151 552 172 570 q 103 483 130 534 m 103 206 l 9 268 q 99 417 54 376 q 217 459 145 459 q 362 421 264 459 q 486 387 452 387 q 540 402 519 387 q 587 460 562 418 l 684 403 q 587 262 636 303 q 465 222 538 222 q 326 259 428 222 q 207 294 233 294 q 151 276 172 294 q 103 206 130 258 "},"Á":{"x_min":-10,"x_max":1498,"ha":1450,"o":"m 1093 347 l 906 347 l 681 -41 q 304 -317 522 -317 q 80 -221 171 -317 q -10 16 -10 -125 q 59 238 -10 131 q 250 415 129 345 q 450 487 340 466 q 743 509 560 509 l 793 509 l 847 607 q 1120 881 958 813 q 1391 926 1224 926 q 1458 906 1434 926 q 1483 854 1483 887 q 1474 817 1483 838 l 1468 801 l 1352 509 l 1403 509 l 1421 509 q 1498 443 1498 509 q 1466 375 1498 403 q 1390 347 1435 347 l 1372 347 l 1286 347 l 1211 162 l 1321 162 l 1339 162 q 1415 96 1415 162 q 1383 28 1415 56 q 1308 0 1352 0 l 1289 0 l 1144 0 q 1049 30 1086 0 q 1013 108 1013 60 q 1040 214 1013 145 l 1093 347 m 1160 509 l 1258 750 q 1137 704 1186 745 q 1024 555 1087 663 l 996 509 l 1160 509 m 700 347 l 642 347 q 335 275 449 347 q 220 160 263 229 q 177 20 177 91 q 218 -89 177 -43 q 318 -135 259 -135 q 499 0 420 -135 l 700 347 m 1469 1068 l 1387 1002 q 1335 979 1357 979 q 1303 992 1317 979 q 1289 1025 1289 1006 q 1291 1039 1289 1032 l 1297 1052 l 1322 1120 q 1386 1165 1339 1165 l 1424 1165 q 1493 1111 1493 1165 q 1469 1068 1493 1086 "},"g":{"x_min":-172,"x_max":651,"ha":605,"o":"m 463 -19 l 544 -19 q 631 -78 631 -19 q 600 -143 631 -120 q 516 -167 569 -167 l 403 -167 l 375 -236 q 71 -491 271 -491 q -102 -426 -32 -491 q -172 -265 -172 -362 q -138 -146 -172 -202 q -46 -59 -104 -91 q 147 -19 25 -19 l 293 -19 l 314 33 q 233 8 271 8 q 116 58 161 8 q 71 189 71 108 q 162 423 71 319 q 367 528 253 528 q 492 474 451 528 q 582 528 524 528 q 631 509 611 528 q 651 464 651 490 q 633 399 651 443 l 463 -19 m 375 184 l 430 318 q 437 346 437 335 q 419 380 437 366 q 373 394 401 394 q 280 337 324 394 q 236 219 236 281 q 302 148 236 148 q 375 184 360 148 m 232 -167 l 115 -167 q 20 -192 54 -167 q -13 -265 -13 -218 q 10 -319 -13 -297 q 67 -342 33 -342 q 152 -303 115 -342 q 232 -167 189 -264 "},"²":{"x_min":171,"x_max":553,"ha":418,"o":"m 341 431 l 455 431 q 512 392 512 431 q 491 348 512 364 q 435 333 471 333 l 229 333 q 171 381 171 333 q 192 428 171 406 l 420 658 q 438 695 438 676 q 423 726 438 713 q 389 740 408 740 q 344 697 344 740 q 353 665 344 683 q 362 636 362 649 q 346 599 362 614 q 307 585 331 585 q 253 614 275 585 q 231 687 231 644 q 279 796 231 752 q 397 840 327 840 q 509 801 465 840 q 553 701 553 762 q 508 597 553 642 l 341 431 "},"–":{"x_min":88,"x_max":699,"ha":648,"o":"m 165 347 l 621 347 l 634 347 q 699 289 699 347 q 634 231 699 231 l 621 231 l 165 231 l 152 231 q 106 246 124 231 q 88 289 88 262 q 105 331 88 315 q 152 347 123 347 l 165 347 "},"ë":{"x_min":64,"x_max":627,"ha":552,"o":"m 226 199 q 303 146 226 146 l 504 146 q 590 86 590 146 q 559 22 590 45 q 475 0 529 0 l 283 0 q 120 52 176 0 q 64 207 64 105 q 152 433 64 338 q 363 528 241 528 q 506 481 452 528 q 560 359 560 435 q 485 224 560 268 q 362 199 444 199 l 226 199 m 259 322 l 333 322 q 404 353 406 322 q 357 390 401 390 q 259 322 294 390 m 535 761 q 600 735 573 761 q 627 670 627 708 q 600 604 627 631 q 535 578 573 578 q 469 604 496 578 q 443 670 443 631 q 469 735 443 708 q 535 761 496 761 m 276 761 q 342 735 315 761 q 369 670 369 708 q 342 604 369 631 q 276 578 315 578 q 211 604 238 578 q 185 670 185 631 q 211 735 185 708 q 276 761 238 761 "},"ƒ":{"x_min":95,"x_max":865,"ha":648,"o":"m 520 519 l 613 519 q 699 459 699 519 q 668 395 699 418 q 584 373 638 373 l 459 373 l 271 -91 q 166 -184 233 -184 q 115 -165 135 -184 q 95 -120 95 -147 q 105 -74 95 -101 l 113 -56 l 287 373 l 241 373 q 155 431 155 373 q 185 495 155 472 q 269 519 215 519 l 347 519 l 434 731 q 537 881 476 837 q 700 926 598 926 l 777 926 q 865 867 865 926 q 834 803 865 826 q 748 780 803 780 l 728 780 q 639 756 672 780 q 583 677 606 733 l 520 519 "},"Î":{"x_min":166,"x_max":808,"ha":817,"o":"m 600 162 l 714 162 q 808 96 808 162 q 775 25 808 50 q 682 0 742 0 l 559 0 q 446 28 485 0 q 408 112 408 57 q 435 220 408 151 l 571 555 q 613 695 613 657 q 585 749 613 725 q 521 774 557 774 q 398 715 453 774 q 343 584 343 656 q 361 519 343 542 q 430 476 380 496 q 475 416 475 458 q 445 351 475 376 q 371 326 415 326 q 226 398 286 326 q 166 571 166 470 q 277 828 166 718 q 536 939 388 939 q 721 873 647 939 q 796 711 796 808 q 760 555 796 642 l 600 162 m 604 1037 l 523 993 q 467 973 486 973 q 429 989 446 973 q 413 1029 413 1006 q 470 1100 413 1069 l 549 1142 q 617 1163 589 1163 q 652 1148 633 1163 q 666 1136 660 1141 l 721 1091 q 756 1030 756 1062 q 739 989 756 1005 q 698 974 722 974 q 644 1002 676 974 l 604 1037 "},"e":{"x_min":64,"x_max":590,"ha":552,"o":"m 226 199 q 303 146 226 146 l 504 146 q 590 86 590 146 q 559 22 590 45 q 475 0 529 0 l 283 0 q 120 52 176 0 q 64 207 64 105 q 152 433 64 338 q 363 528 241 528 q 506 481 452 528 q 560 359 560 435 q 485 224 560 268 q 362 199 444 199 l 226 199 m 259 322 l 333 322 q 404 353 406 322 q 357 390 401 390 q 259 322 294 390 "},"Ã":{"x_min":-10,"x_max":1539,"ha":1450,"o":"m 1093 347 l 906 347 l 681 -41 q 304 -317 522 -317 q 80 -221 171 -317 q -10 16 -10 -125 q 59 238 -10 131 q 250 415 129 345 q 450 487 340 466 q 743 509 560 509 l 793 509 l 847 607 q 1120 881 958 813 q 1391 926 1224 926 q 1458 906 1434 926 q 1483 854 1483 887 q 1474 817 1483 838 l 1468 801 l 1352 509 l 1403 509 l 1421 509 q 1498 443 1498 509 q 1466 375 1498 403 q 1390 347 1435 347 l 1372 347 l 1286 347 l 1211 162 l 1321 162 l 1339 162 q 1415 96 1415 162 q 1383 28 1415 56 q 1308 0 1352 0 l 1289 0 l 1144 0 q 1049 30 1086 0 q 1013 108 1013 60 q 1040 214 1013 145 l 1093 347 m 1160 509 l 1258 750 q 1137 704 1186 745 q 1024 555 1087 663 l 996 509 l 1160 509 m 700 347 l 642 347 q 335 275 449 347 q 220 160 263 229 q 177 20 177 91 q 218 -89 177 -43 q 318 -135 259 -135 q 499 0 420 -135 l 700 347 m 1213 1081 l 1239 1115 q 1313 1154 1269 1154 q 1372 1131 1337 1154 l 1393 1117 q 1409 1111 1402 1111 q 1426 1119 1417 1111 l 1442 1135 q 1476 1150 1456 1150 q 1520 1134 1502 1150 q 1539 1095 1539 1118 q 1519 1046 1539 1068 l 1480 1002 q 1417 972 1453 972 q 1350 1000 1385 972 q 1324 1016 1330 1016 q 1301 1003 1315 1016 q 1242 977 1274 977 q 1205 992 1220 977 q 1190 1031 1190 1008 q 1213 1081 1190 1053 "},"J":{"x_min":18,"x_max":1017,"ha":1025,"o":"m 822 162 l 923 162 q 1017 95 1017 162 q 983 25 1017 50 q 891 0 950 0 l 758 0 l 708 -124 q 536 -416 625 -331 q 313 -502 446 -502 q 102 -417 186 -502 q 18 -208 18 -333 q 67 -34 18 -114 q 208 96 117 45 q 526 160 323 160 l 633 162 l 792 555 q 833 695 833 657 q 804 750 833 727 q 736 774 775 774 q 616 714 670 774 q 562 582 562 654 q 580 519 562 542 q 645 478 599 496 q 695 416 695 458 q 665 351 695 377 q 593 326 636 326 q 445 397 506 326 q 385 570 385 468 q 496 828 385 718 q 757 939 607 939 q 941 872 867 939 q 1015 707 1015 806 q 979 555 1015 644 l 822 162 m 573 0 q 354 -27 430 0 q 242 -99 283 -52 q 202 -203 202 -146 q 236 -293 202 -256 q 320 -330 271 -330 q 434 -274 384 -330 q 534 -97 485 -219 l 573 0 "},"»":{"x_min":139,"x_max":560,"ha":606,"o":"m 221 282 l 185 379 q 175 423 175 407 q 196 473 175 451 q 245 496 218 496 q 294 456 279 496 l 298 444 l 336 346 l 348 314 q 357 274 357 291 q 328 209 357 249 l 271 130 q 195 76 232 76 q 155 92 172 76 q 139 133 139 109 q 159 192 139 162 l 169 206 l 221 282 m 424 282 l 388 379 q 378 423 378 407 q 399 473 378 451 q 448 496 421 496 q 497 456 482 496 l 501 444 l 539 346 l 551 314 q 560 274 560 291 q 531 209 560 249 l 474 130 q 398 76 435 76 q 358 92 375 76 q 342 133 342 109 q 362 192 342 162 l 372 206 l 424 282 "},"∆":{"x_min":24.421875,"x_max":901.359375,"ha":926,"o":"m 24 0 l 366 926 l 552 926 l 901 0 l 24 0 m 269 162 l 653 162 l 461 717 l 269 162 "},"©":{"x_min":149,"x_max":1103,"ha":1013,"o":"m 552 496 q 513 362 513 425 q 532 300 513 318 q 596 283 551 283 l 729 283 q 780 247 780 283 q 714 194 780 194 l 574 194 q 456 236 499 194 q 413 351 413 278 q 448 496 413 416 l 440 496 l 432 496 q 390 532 390 496 q 406 570 390 555 q 446 585 422 585 l 455 585 l 497 585 q 595 692 538 652 q 710 732 653 732 q 792 701 759 732 q 825 623 825 670 q 631 496 825 496 l 552 496 m 608 585 l 657 585 q 729 620 729 585 q 699 644 729 644 q 608 585 662 644 m 704 935 q 990 824 877 935 q 1103 543 1103 713 q 1044 288 1103 415 q 890 86 985 162 q 761 18 828 36 q 575 0 694 0 q 402 8 452 0 q 309 47 352 17 q 192 185 235 98 q 149 372 149 273 q 186 565 149 467 q 289 741 223 663 q 704 935 454 935 m 689 854 q 352 693 486 854 q 239 390 239 557 q 273 235 239 307 q 369 120 308 162 q 444 88 404 95 q 584 81 485 81 q 735 96 681 81 q 840 152 790 111 q 965 319 918 215 q 1013 530 1013 423 q 921 762 1013 670 q 689 854 830 854 "},"˘":{"x_min":294,"x_max":641,"ha":695,"o":"m 349 779 q 378 771 368 779 q 409 734 389 763 q 467 699 433 699 q 525 734 501 699 q 556 771 545 763 q 586 779 566 779 q 625 763 609 779 q 641 724 641 747 q 589 619 641 663 q 467 575 537 575 q 345 619 397 575 q 294 724 294 664 q 309 763 294 747 q 349 779 325 779 "},"≥":{"x_min":46,"x_max":648,"ha":695,"o":"m 46 208 l 46 370 l 466 565 l 46 758 l 46 919 l 648 632 l 648 489 l 46 208 m 46 10 l 46 170 l 648 170 l 648 10 l 46 10 "},"ò":{"x_min":65,"x_max":603,"ha":575,"o":"m 377 528 q 539 465 476 528 q 603 307 603 403 q 569 163 603 234 q 483 48 536 91 q 410 10 448 21 q 305 0 373 0 q 155 26 194 0 q 65 210 65 88 q 157 433 65 339 q 377 528 250 528 m 361 384 q 269 334 310 384 q 228 224 228 284 q 316 146 228 146 q 395 177 367 146 q 442 297 442 230 q 419 360 442 336 q 361 384 397 384 m 393 717 l 421 652 q 430 616 430 633 q 416 583 430 597 q 383 570 402 570 q 338 587 361 570 l 257 647 q 219 705 219 675 q 234 743 219 728 q 274 759 250 759 l 324 759 q 393 717 374 759 "},"^":{"x_min":9.5,"x_max":685,"ha":695,"o":"m 188 470 l 9 470 l 234 931 l 459 931 l 685 470 l 505 470 l 347 795 l 188 470 "},"«":{"x_min":139,"x_max":560,"ha":606,"o":"m 274 289 l 310 192 q 321 148 321 164 q 299 98 321 120 q 251 76 277 76 q 201 115 216 76 l 197 127 l 160 225 l 147 257 q 139 297 139 280 q 167 362 139 322 l 224 441 q 300 496 264 496 q 340 479 323 496 q 357 438 357 462 q 327 365 357 409 l 274 289 m 477 289 l 513 192 q 524 148 524 164 q 502 98 524 120 q 454 76 480 76 q 404 115 419 76 l 400 127 l 363 225 l 350 257 q 342 297 342 280 q 370 362 342 322 l 427 441 q 503 496 467 496 q 543 479 526 496 q 560 438 560 462 q 530 365 560 409 l 477 289 "},"D":{"x_min":-139,"x_max":1320,"ha":1269,"o":"m 744 764 l 677 764 l 659 764 q 584 829 584 764 q 614 898 584 870 q 690 926 645 926 l 708 926 l 907 926 q 1213 831 1106 926 q 1320 557 1320 736 q 1138 59 1320 285 q 907 -126 1036 -68 q 597 -185 777 -185 l 550 -185 l 541 -203 q 467 -352 494 -309 q 396 -435 440 -395 q 137 -539 283 -539 q -61 -467 16 -539 q -139 -285 -139 -395 q -105 -158 -139 -217 q -15 -65 -72 -98 q 184 -23 58 -23 l 425 -23 l 744 764 m 615 -23 l 642 -23 q 995 163 853 -23 q 1103 357 1063 253 q 1143 550 1143 462 q 1087 707 1143 650 q 935 764 1031 764 l 615 -23 m 359 -185 l 179 -185 q 48 -278 48 -185 q 77 -343 48 -317 q 147 -370 106 -370 q 266 -321 210 -370 q 359 -185 322 -272 "},"∙":{"x_min":176,"x_max":365,"ha":347,"o":"m 270 354 q 337 326 309 354 q 365 259 365 298 q 337 192 365 220 q 270 165 309 165 q 203 192 231 165 q 176 259 176 220 q 203 326 176 298 q 270 354 231 354 "},"ÿ":{"x_min":-185,"x_max":648,"ha":595,"o":"m 451 -28 l 529 -28 q 616 -88 616 -28 q 585 -152 616 -129 q 501 -176 555 -176 l 391 -176 q 320 -330 371 -234 q 59 -500 230 -500 q -114 -434 -43 -500 q -185 -273 -185 -369 q -146 -148 -185 -206 q -46 -61 -108 -90 q 166 -28 25 -28 l 276 -28 l 296 21 q 204 0 246 0 q 86 36 131 0 q 41 132 41 73 q 70 240 41 168 l 144 423 l 151 442 q 253 519 184 519 q 302 500 282 519 q 323 451 323 481 q 305 388 323 432 l 238 226 q 222 175 222 186 q 264 142 219 142 q 327 160 295 142 q 369 201 360 178 l 460 423 l 466 442 q 568 519 498 519 q 617 499 597 519 q 638 451 638 480 q 627 406 638 432 l 619 388 l 451 -28 m 229 -176 l 134 -176 q -22 -273 -22 -176 q 0 -329 -22 -308 q 56 -350 20 -350 q 144 -311 106 -350 q 229 -176 183 -272 m 556 761 q 621 735 594 761 q 648 670 648 708 q 621 604 648 631 q 556 578 594 578 q 490 604 517 578 q 464 670 464 631 q 490 735 464 708 q 556 761 517 761 m 297 761 q 363 735 336 761 q 390 670 390 708 q 363 604 390 631 q 297 578 336 578 q 232 604 259 578 q 206 670 206 631 q 232 735 206 708 q 297 761 259 761 "},"í":{"x_min":64,"x_max":475,"ha":376,"o":"m 252 146 l 328 146 q 414 86 414 146 q 383 22 414 45 q 299 0 353 0 l 191 0 q 98 24 132 0 q 64 90 64 48 q 78 147 64 113 l 190 423 l 197 442 q 298 519 228 519 q 347 499 326 519 q 368 454 368 480 q 349 387 368 432 l 252 146 m 451 660 l 368 594 q 316 571 338 571 q 284 584 298 571 q 270 617 270 598 q 272 631 270 624 l 278 644 l 303 712 q 367 757 320 757 l 406 757 q 475 703 475 757 q 451 660 475 678 "},"ˆ":{"x_min":286,"x_max":630,"ha":695,"o":"m 478 639 l 397 595 q 338 575 360 575 q 301 592 317 575 q 286 632 286 610 q 343 702 286 671 l 423 744 q 490 765 462 765 q 526 750 507 765 q 540 738 532 744 l 595 693 q 630 631 630 664 q 613 591 630 607 q 572 576 596 576 q 518 604 550 576 l 478 639 "},"w":{"x_min":71,"x_max":889,"ha":790,"o":"m 558 252 l 718 459 l 731 475 q 819 528 771 528 q 869 507 849 528 q 889 457 889 487 q 847 373 889 425 l 593 53 q 490 -10 543 -10 q 415 23 445 -10 q 385 104 385 56 q 387 130 385 117 l 408 252 l 270 53 q 174 -10 227 -10 q 100 25 129 -10 q 71 116 71 60 q 71 129 71 124 l 90 414 q 119 498 94 468 q 186 528 143 528 q 250 458 250 528 q 248 432 250 446 l 229 242 l 381 458 q 493 528 429 528 q 555 505 532 528 q 579 445 579 483 q 578 422 579 429 l 558 252 "},"$":{"x_min":119,"x_max":717,"ha":648,"o":"m 623 835 l 634 835 q 717 773 717 835 q 685 703 717 728 q 595 678 653 678 l 507 678 l 490 677 q 435 638 432 677 q 447 599 435 624 l 559 347 q 597 197 597 263 q 534 58 597 117 q 387 0 472 0 l 375 -31 q 288 -99 347 -99 q 238 -79 258 -99 q 218 -29 218 -59 q 224 0 218 -17 l 208 0 q 139 14 160 0 q 119 64 119 29 q 150 131 119 107 q 238 156 181 156 l 362 156 q 437 207 437 156 q 428 242 437 223 l 306 523 l 296 544 q 271 647 271 601 q 321 776 271 724 q 456 835 372 827 l 465 858 q 549 920 490 920 q 623 835 615 920 "},"∫":{"x_min":73.8125,"x_max":620.1875,"ha":695,"o":"m 73 -332 l 105 -180 q 180 -194 152 -194 q 244 -168 227 -194 q 261 -71 261 -143 l 261 -11 l 261 672 q 280 911 261 859 q 496 1042 327 1042 q 620 1027 544 1042 l 588 875 q 513 888 542 888 q 433 791 433 888 l 433 708 l 433 618 l 433 22 q 427 -159 433 -111 q 403 -241 422 -206 q 196 -347 344 -347 q 73 -332 138 -347 "},"\\":{"x_min":307,"x_max":482,"ha":614,"o":"m 422 909 l 481 -126 q 482 -145 482 -142 q 462 -192 482 -172 q 415 -213 443 -213 q 366 -149 369 -213 l 307 886 q 307 903 307 901 q 326 952 307 932 q 373 973 345 973 q 422 922 418 973 l 422 909 "},"Ì":{"x_min":166,"x_max":808,"ha":817,"o":"m 600 162 l 714 162 q 808 96 808 162 q 775 25 808 50 q 682 0 742 0 l 559 0 q 446 28 485 0 q 408 112 408 57 q 435 220 408 151 l 571 555 q 613 695 613 657 q 585 749 613 725 q 521 774 557 774 q 398 715 453 774 q 343 584 343 656 q 361 519 343 542 q 430 476 380 496 q 475 416 475 458 q 445 351 475 376 q 371 326 415 326 q 226 398 286 326 q 166 571 166 470 q 277 828 166 718 q 536 939 388 939 q 721 873 647 939 q 796 711 796 808 q 760 555 796 642 l 600 162 m 569 1125 l 597 1060 q 606 1024 606 1041 q 592 991 606 1005 q 559 978 578 978 q 513 995 537 978 l 433 1055 q 395 1113 395 1083 q 411 1151 395 1136 q 451 1167 427 1167 l 500 1167 q 569 1125 551 1167 "},"µ":{"x_min":-51,"x_max":706,"ha":668,"o":"m 154 0 l 127 -108 q 86 -175 116 -148 q 18 -203 55 -203 q -30 -184 -9 -203 q -51 -138 -51 -165 q -32 -72 -51 -117 l 173 433 q 279 528 211 528 q 328 509 308 528 q 349 463 349 490 q 331 398 349 441 l 259 223 l 251 203 q 245 176 245 186 q 284 146 243 146 q 396 214 369 146 l 481 423 q 588 519 519 519 q 637 499 617 519 q 658 454 658 480 q 647 407 658 433 l 639 388 l 541 146 l 620 146 q 686 132 666 146 q 706 87 706 118 q 675 23 706 46 q 592 0 645 0 l 470 0 q 394 43 413 0 q 301 0 357 0 l 154 0 "},"Ç":{"x_min":82,"x_max":986,"ha":800,"o":"m 600 -185 q 587 -212 596 -197 l 567 -244 q 590 -241 579 -241 q 670 -279 636 -241 q 705 -370 705 -318 q 662 -477 705 -436 q 553 -519 620 -519 l 471 -519 q 415 -483 415 -519 q 435 -438 415 -454 q 489 -423 455 -423 l 539 -423 q 598 -373 598 -423 q 554 -327 598 -327 q 516 -339 535 -327 q 476 -354 495 -354 q 439 -317 439 -354 q 451 -277 439 -300 l 502 -185 l 463 -185 q 306 -157 365 -185 q 177 -40 224 -119 q 131 139 131 38 q 213 463 131 274 l 175 463 l 158 463 q 82 528 82 463 q 113 596 82 568 q 189 625 144 625 l 207 625 l 305 625 q 469 821 366 726 q 754 940 601 940 q 920 878 854 940 q 986 720 986 816 q 859 511 986 584 q 585 463 773 463 l 408 463 q 318 161 318 300 q 362 19 318 62 q 512 -23 407 -23 l 889 -23 q 983 -86 983 -23 q 950 -158 983 -132 q 857 -185 917 -185 l 600 -185 m 509 625 l 640 625 q 809 715 809 625 q 787 761 809 743 q 731 780 765 780 q 618 737 679 780 q 509 625 558 695 "},"’":{"x_min":259.953125,"x_max":463,"ha":296,"o":"m 314 804 q 294 862 294 837 q 318 920 294 896 q 378 944 343 944 q 438 919 414 944 q 463 859 463 895 q 382 735 463 801 q 294 685 321 685 q 270 694 281 685 q 260 714 259 703 q 275 749 260 728 l 288 767 l 314 804 "},"-":{"x_min":52,"x_max":318,"ha":266,"o":"m 129 347 l 240 347 l 253 347 q 318 289 318 347 q 253 231 318 231 l 240 231 l 129 231 l 116 231 q 70 246 88 231 q 52 289 52 262 q 69 331 52 315 q 116 347 87 347 l 129 347 "},"Q":{"x_min":134,"x_max":1141,"ha":992,"o":"m 670 72 l 701 16 q 733 -15 715 -7 q 795 -23 752 -23 l 1047 -23 q 1141 -89 1141 -23 q 1108 -159 1141 -134 q 1015 -185 1075 -185 l 697 -185 q 585 -113 626 -185 l 524 -8 q 408 -28 467 -28 q 207 60 281 -28 q 134 300 134 148 q 179 546 134 417 q 294 760 224 675 q 448 888 361 842 q 621 935 536 935 q 827 846 749 935 q 905 612 905 757 q 839 311 905 461 q 670 72 774 160 m 585 221 q 687 405 650 302 q 725 609 725 507 q 691 726 725 683 q 599 770 657 770 q 421 648 501 770 q 344 478 375 578 q 314 299 314 377 q 344 185 314 230 q 420 141 374 141 q 440 142 426 141 l 414 185 q 384 266 384 236 q 407 325 384 301 q 463 349 430 349 q 511 335 493 349 q 552 279 529 321 l 585 221 "},"M":{"x_min":-10,"x_max":1534,"ha":1479,"o":"m 1263 162 l 1373 162 q 1468 97 1468 162 q 1435 25 1468 51 q 1342 0 1402 0 l 1213 0 q 1104 29 1142 0 q 1066 113 1066 59 q 1094 217 1066 149 l 1268 625 l 1138 484 q 1049 434 1091 434 q 977 509 994 434 l 959 593 l 793 185 q 663 -100 707 -25 q 547 -231 618 -176 q 310 -312 443 -312 q 78 -222 167 -312 q -10 12 -10 -132 q 129 345 -10 201 q 317 468 205 421 q 539 516 430 516 q 628 492 595 516 q 662 429 662 468 q 626 362 662 387 q 548 341 606 347 q 330 280 413 329 q 221 172 261 238 q 181 33 181 105 q 220 -88 181 -44 q 328 -133 259 -133 q 470 -62 410 -133 q 604 185 531 7 l 873 847 q 968 935 908 935 q 1028 910 1006 935 q 1066 825 1050 886 l 1108 669 l 1311 869 q 1437 935 1378 935 q 1505 910 1477 935 q 1534 850 1534 885 q 1523 801 1534 827 l 1507 763 l 1263 162 "},"C":{"x_min":82,"x_max":986,"ha":800,"o":"m 408 463 q 318 161 318 300 q 362 19 318 62 q 512 -23 407 -23 l 889 -23 q 983 -86 983 -23 q 950 -158 983 -132 q 857 -185 917 -185 l 463 -185 q 306 -157 365 -185 q 177 -40 224 -119 q 131 139 131 38 q 213 463 131 274 l 175 463 l 158 463 q 82 528 82 463 q 113 596 82 568 q 189 625 144 625 l 207 625 l 305 625 q 469 821 366 726 q 754 940 601 940 q 920 878 854 940 q 986 720 986 816 q 859 511 986 584 q 585 463 773 463 l 408 463 m 509 625 l 640 625 q 809 715 809 625 q 787 761 809 743 q 731 780 765 780 q 618 737 679 780 q 509 625 558 695 "},"œ":{"x_min":64,"x_max":929,"ha":891,"o":"m 573 199 q 642 146 579 146 l 843 146 q 929 87 929 146 q 898 23 929 46 q 815 0 868 0 l 622 0 q 465 49 522 0 q 324 0 422 0 l 284 0 l 191 8 q 101 81 138 23 q 64 210 64 139 q 155 433 64 338 q 372 528 247 528 q 534 458 480 528 q 700 528 588 528 q 844 482 791 528 q 898 358 898 436 q 824 223 898 267 q 699 199 783 199 l 573 199 m 360 384 q 268 334 310 384 q 227 223 227 284 q 314 146 227 146 q 395 177 367 146 q 442 300 442 230 q 418 360 442 336 q 360 384 395 384 m 604 322 l 672 322 q 742 354 744 322 q 699 388 739 388 q 641 369 668 388 q 604 322 615 351 "},"!":{"x_min":119,"x_max":536,"ha":402,"o":"m 213 171 q 280 143 252 171 q 308 76 308 115 q 280 9 308 37 q 213 -18 252 -18 q 146 9 174 -18 q 119 76 119 37 q 146 143 119 115 q 213 171 174 171 m 519 715 l 370 313 q 279 210 332 210 q 234 228 253 210 q 216 274 216 247 q 223 318 216 291 l 351 783 q 447 870 376 870 q 510 845 484 870 q 536 785 536 821 q 519 715 536 762 "},"ç":{"x_min":64,"x_max":567,"ha":528,"o":"m 371 0 q 358 -27 367 -12 l 337 -59 q 362 -56 350 -56 q 441 -94 407 -56 q 476 -185 476 -133 q 433 -292 476 -251 q 324 -334 391 -334 l 242 -334 q 187 -298 187 -334 q 206 -253 187 -269 q 260 -238 226 -238 l 311 -238 q 369 -187 369 -238 q 325 -142 369 -142 q 287 -154 306 -142 q 247 -169 266 -169 q 210 -132 210 -169 q 222 -92 210 -116 l 273 0 l 255 0 q 117 59 170 0 q 64 214 64 119 q 151 434 64 340 q 357 528 239 528 q 487 483 437 528 q 538 366 538 438 q 512 283 538 315 q 448 251 487 251 q 386 309 386 251 q 386 324 386 318 q 387 339 387 332 q 340 387 387 387 q 259 339 295 387 q 223 234 223 292 q 252 166 223 186 q 352 146 282 146 l 480 146 q 567 86 567 146 q 536 23 567 46 q 452 0 505 0 l 371 0 "},"È":{"x_min":-139,"x_max":1350,"ha":1089,"o":"m 640 509 l 777 841 q 822 911 800 896 q 906 926 845 926 l 1256 926 q 1350 862 1350 926 q 1319 792 1350 820 q 1242 764 1288 764 l 1224 764 l 935 764 l 832 509 l 916 509 l 934 509 q 1011 443 1011 509 q 979 375 1011 403 q 903 347 948 347 l 885 347 l 766 347 l 615 -23 l 1084 -23 l 1102 -23 q 1178 -86 1178 -23 q 1147 -156 1178 -128 q 1070 -185 1116 -185 l 1052 -185 l 550 -185 l 541 -203 q 466 -352 493 -309 q 396 -435 440 -395 q 136 -539 283 -539 q -61 -467 16 -539 q -139 -286 -139 -396 q -105 -158 -139 -218 q -15 -65 -72 -98 q 184 -23 58 -23 l 424 -23 l 575 347 l 569 347 l 552 347 q 477 413 477 347 q 508 481 477 453 q 583 509 539 509 l 602 509 l 640 509 m 358 -185 l 179 -185 q 48 -279 48 -185 q 77 -343 48 -317 q 150 -370 106 -370 q 266 -320 210 -370 q 358 -185 322 -271 m 1104 1125 l 1132 1060 q 1141 1024 1141 1041 q 1127 991 1141 1005 q 1094 978 1113 978 q 1049 995 1072 978 l 968 1055 q 930 1113 930 1083 q 945 1151 930 1136 q 985 1167 961 1167 l 1035 1167 q 1104 1125 1085 1167 "},"{":{"x_min":97,"x_max":836,"ha":602,"o":"m 375 412 q 416 335 416 378 q 392 238 416 298 l 332 80 l 325 62 q 313 14 313 31 q 371 -17 311 -14 q 437 -35 418 -20 q 456 -85 456 -50 q 423 -158 456 -131 q 335 -185 391 -185 l 307 -185 l 284 -184 l 235 -182 q 97 -87 97 -182 q 123 29 97 -39 l 192 208 q 211 284 211 257 q 177 330 211 309 q 141 358 149 347 q 133 391 133 369 q 226 494 133 474 q 299 531 272 504 q 348 616 326 558 l 403 758 q 670 970 484 970 l 701 972 l 724 973 l 754 973 q 836 905 836 973 q 701 805 836 805 q 619 788 641 805 q 572 707 597 771 l 526 586 q 467 480 499 517 q 375 412 435 443 "},"X":{"x_min":185,"x_max":1359,"ha":1070,"o":"m 848 449 l 933 20 q 954 -14 939 -5 q 1007 -23 969 -23 l 1264 -23 q 1359 -86 1359 -23 q 1326 -159 1359 -133 q 1233 -185 1293 -185 l 976 -185 l 940 -185 q 822 -154 857 -185 q 769 -39 786 -123 l 709 276 l 510 35 l 495 16 q 399 -37 451 -37 q 343 -14 365 -37 q 321 41 321 7 q 368 136 321 77 l 662 497 l 636 640 q 535 755 615 755 q 419 697 472 755 q 367 569 367 639 q 442 480 367 494 q 524 405 524 466 q 489 335 524 363 q 404 307 455 307 q 248 377 311 307 q 185 550 185 447 q 297 814 185 700 q 560 928 410 928 q 711 875 649 928 q 792 729 773 822 l 807 662 l 957 851 q 983 883 975 873 q 1019 918 1002 910 q 1074 926 1037 926 l 1217 926 q 1311 861 1311 926 q 1278 789 1311 814 q 1186 764 1245 764 l 1096 764 l 848 449 "},"ô":{"x_min":65,"x_max":603,"ha":575,"o":"m 377 528 q 539 465 476 528 q 603 307 603 403 q 569 163 603 234 q 483 48 536 91 q 410 10 448 21 q 305 0 373 0 q 155 26 194 0 q 65 210 65 88 q 157 433 65 339 q 377 528 250 528 m 361 384 q 269 334 310 384 q 228 224 228 284 q 316 146 228 146 q 395 177 367 146 q 442 297 442 230 q 419 360 442 336 q 361 384 397 384 m 418 639 l 337 595 q 278 575 300 575 q 241 592 257 575 q 226 632 226 610 q 283 702 226 671 l 363 744 q 430 765 402 765 q 466 750 447 765 q 480 738 472 744 l 535 693 q 570 631 570 664 q 553 591 570 607 q 512 576 536 576 q 458 604 490 576 l 418 639 "},"¼":{"x_min":257,"x_max":1110,"ha":1084,"o":"m 400 736 l 377 736 q 320 775 320 736 q 340 818 320 802 q 396 834 360 834 l 479 834 q 533 792 533 834 q 526 764 533 780 l 373 388 q 302 328 349 328 q 257 370 257 328 q 263 397 257 382 l 267 408 l 400 736 m 407 28 l 806 834 q 860 868 823 868 q 896 840 897 868 q 887 814 895 829 l 489 9 q 434 -24 472 -24 q 399 3 399 -24 q 407 28 399 10 m 1018 201 l 1037 201 q 1093 162 1093 201 q 1072 118 1093 134 q 1016 103 1052 103 l 978 103 l 959 55 q 888 -5 934 -5 q 842 37 842 -5 q 848 65 842 49 l 852 76 l 863 103 l 782 103 q 703 166 703 103 q 723 218 703 196 l 738 234 l 942 448 q 1042 507 997 507 q 1090 489 1071 507 q 1110 445 1110 471 q 1097 396 1110 426 l 1018 201 m 903 201 l 973 358 l 829 201 l 903 201 "},"#":{"x_min":81,"x_max":790,"ha":648,"o":"m 456 595 l 560 595 l 629 764 q 721 843 661 843 q 768 826 749 843 q 787 785 787 810 q 773 735 787 769 l 715 595 q 790 540 790 590 q 760 481 790 502 q 676 461 731 461 l 661 461 l 625 373 q 701 318 701 368 q 671 259 701 280 q 587 239 641 239 l 570 239 l 501 68 q 409 -10 469 -10 q 362 5 381 -10 q 344 45 344 21 q 358 98 344 62 l 415 239 l 311 239 l 242 68 q 150 -10 210 -10 q 103 5 122 -10 q 85 45 85 21 q 99 98 85 63 l 155 239 q 81 293 81 243 q 110 352 81 331 q 193 373 140 373 l 210 373 l 246 461 q 170 515 170 465 q 199 574 170 553 q 283 595 229 595 l 301 595 l 370 764 q 461 843 402 843 q 508 826 489 843 q 527 785 527 810 q 513 735 527 768 l 456 595 m 401 461 l 365 373 l 470 373 l 505 461 l 401 461 "},"Ê":{"x_min":-139,"x_max":1350,"ha":1089,"o":"m 640 509 l 777 841 q 822 911 800 896 q 906 926 845 926 l 1256 926 q 1350 862 1350 926 q 1319 792 1350 820 q 1242 764 1288 764 l 1224 764 l 935 764 l 832 509 l 916 509 l 934 509 q 1011 443 1011 509 q 979 375 1011 403 q 903 347 948 347 l 885 347 l 766 347 l 615 -23 l 1084 -23 l 1102 -23 q 1178 -86 1178 -23 q 1147 -156 1178 -128 q 1070 -185 1116 -185 l 1052 -185 l 550 -185 l 541 -203 q 466 -352 493 -309 q 396 -435 440 -395 q 136 -539 283 -539 q -61 -467 16 -539 q -139 -286 -139 -396 q -105 -158 -139 -218 q -15 -65 -72 -98 q 184 -23 58 -23 l 424 -23 l 575 347 l 569 347 l 552 347 q 477 413 477 347 q 508 481 477 453 q 583 509 539 509 l 602 509 l 640 509 m 358 -185 l 179 -185 q 48 -279 48 -185 q 77 -343 48 -317 q 150 -370 106 -370 q 266 -320 210 -370 q 358 -185 322 -271 m 1111 1037 l 1031 993 q 974 973 994 973 q 936 989 953 973 q 920 1029 920 1006 q 977 1100 920 1069 l 1056 1142 q 1124 1163 1096 1163 q 1159 1148 1140 1163 q 1173 1136 1167 1141 l 1229 1091 q 1263 1030 1263 1063 q 1246 989 1263 1005 q 1205 974 1229 974 q 1151 1002 1183 974 l 1111 1037 "},")":{"x_min":96,"x_max":592,"ha":507,"o":"m 470 1001 q 556 923 529 1001 q 592 604 592 821 q 369 -39 592 264 q 254 -174 298 -135 q 169 -213 209 -213 q 116 -194 137 -213 q 96 -145 96 -175 q 137 -66 96 -118 q 352 293 286 121 q 419 665 419 465 q 403 897 419 751 q 401 931 401 918 q 470 1001 401 1001 "},"Å":{"x_min":-10,"x_max":1521,"ha":1450,"o":"m 1093 347 l 906 347 l 681 -41 q 304 -317 522 -317 q 80 -221 171 -317 q -10 16 -10 -125 q 59 238 -10 131 q 250 415 129 345 q 450 487 340 466 q 743 509 560 509 l 793 509 l 847 607 q 1120 881 958 813 q 1391 926 1224 926 q 1458 906 1434 926 q 1483 854 1483 887 q 1474 817 1483 838 l 1468 801 l 1352 509 l 1403 509 l 1421 509 q 1498 443 1498 509 q 1466 375 1498 403 q 1390 347 1435 347 l 1372 347 l 1286 347 l 1211 162 l 1321 162 l 1339 162 q 1415 96 1415 162 q 1383 28 1415 56 q 1308 0 1352 0 l 1289 0 l 1144 0 q 1049 30 1086 0 q 1013 108 1013 60 q 1040 214 1013 145 l 1093 347 m 1160 509 l 1258 750 q 1137 704 1186 745 q 1024 555 1087 663 l 996 509 l 1160 509 m 700 347 l 642 347 q 335 275 449 347 q 220 160 263 229 q 177 20 177 91 q 218 -89 177 -43 q 318 -135 259 -135 q 499 0 420 -135 l 700 347 m 1400 1214 q 1485 1179 1450 1214 q 1521 1094 1521 1144 q 1485 1009 1521 1044 q 1400 974 1450 974 q 1315 1009 1350 974 q 1280 1094 1280 1044 q 1315 1179 1280 1144 q 1400 1214 1350 1214 m 1400 1137 q 1368 1123 1381 1137 q 1355 1092 1355 1110 q 1368 1060 1355 1073 q 1400 1047 1381 1047 q 1432 1060 1419 1047 q 1446 1092 1446 1073 q 1432 1123 1446 1110 q 1400 1137 1419 1137 "},"ø":{"x_min":41,"x_max":620,"ha":579,"o":"m 585 407 q 610 302 610 357 q 507 65 610 165 q 423 14 470 29 q 294 0 376 0 q 185 13 221 0 q 108 -26 145 -26 q 61 -5 81 -26 q 41 42 41 15 q 86 119 41 76 q 70 216 70 171 q 141 407 70 316 q 382 528 234 528 q 484 507 434 528 q 552 541 522 541 q 598 519 577 541 q 620 473 620 497 q 585 407 620 448 m 365 384 q 274 334 316 384 q 233 224 233 284 q 321 146 233 146 q 401 177 373 146 q 448 300 448 230 q 425 360 448 337 q 365 384 402 384 "},"â":{"x_min":64,"x_max":687,"ha":649,"o":"m 526 146 l 601 146 q 687 87 687 146 q 656 23 687 46 q 572 0 625 0 l 485 0 q 406 45 427 0 q 307 0 355 0 l 230 0 q 109 53 155 0 q 64 192 64 106 q 153 425 64 322 q 357 528 243 528 q 484 467 444 528 q 573 519 518 519 q 622 499 602 519 q 643 452 643 480 q 632 407 643 433 l 624 388 l 526 146 m 280 146 l 297 146 q 371 191 353 146 l 419 307 q 429 345 429 330 q 410 377 429 364 q 367 391 392 391 q 270 333 317 391 q 224 215 224 276 q 280 146 224 146 m 455 639 l 374 595 q 315 575 337 575 q 278 592 294 575 q 263 632 263 610 q 320 702 263 671 l 400 744 q 467 765 439 765 q 503 750 484 765 q 517 738 509 744 l 572 693 q 607 631 607 664 q 590 591 607 607 q 549 576 573 576 q 495 604 527 576 l 455 639 "},"}":{"x_min":-62,"x_max":678,"ha":602,"o":"m 399 375 q 359 453 359 409 q 382 549 359 489 l 442 707 l 449 725 q 462 773 461 756 q 403 805 463 802 q 338 823 357 808 q 319 873 319 838 q 351 946 319 919 q 439 973 383 973 l 467 973 l 490 972 l 539 970 q 678 875 678 970 q 651 758 678 827 l 583 579 q 564 503 564 530 q 597 457 564 478 q 633 429 625 440 q 642 396 642 418 q 548 293 642 314 q 475 255 501 282 q 426 171 448 229 l 371 29 q 103 -182 289 -182 l 73 -184 l 50 -185 l 19 -185 q -62 -117 -62 -185 q 73 -17 -62 -17 q 154 0 132 -17 q 201 80 176 16 l 248 200 q 306 307 274 270 q 399 375 339 344 "},"‰":{"x_min":215,"x_max":1375,"ha":1349,"o":"m 356 39 l 747 830 l 750 836 q 796 868 766 868 q 833 834 833 868 q 826 811 833 823 l 822 803 l 432 13 q 383 -25 413 -25 q 347 8 347 -25 q 356 39 347 20 m 836 437 q 932 400 897 437 q 968 299 968 363 q 934 150 968 226 q 849 35 900 75 q 721 -7 796 -7 q 623 28 659 -7 q 587 122 587 63 q 663 336 587 232 q 836 437 737 437 m 828 342 q 745 269 791 344 q 699 131 699 194 q 731 91 699 91 q 807 146 771 91 q 859 301 859 227 q 828 342 859 339 m 1243 437 q 1339 400 1304 437 q 1375 299 1375 363 q 1341 150 1375 225 q 1256 35 1307 75 q 1128 -7 1203 -7 q 1030 27 1066 -7 q 994 122 994 62 q 1069 336 994 232 q 1243 437 1143 437 m 1235 342 q 1152 269 1198 344 q 1106 131 1106 194 q 1138 91 1106 91 q 1214 146 1179 91 q 1266 301 1266 227 q 1235 342 1266 339 m 464 876 q 560 839 525 876 q 596 739 596 802 q 562 590 596 665 q 477 475 528 514 q 349 433 424 433 q 251 467 287 433 q 215 563 215 502 q 290 775 215 672 q 464 876 365 876 m 456 781 q 373 708 419 783 q 327 571 327 633 q 359 531 327 531 q 435 585 400 531 q 487 741 487 666 q 456 781 487 778 "},"Ä":{"x_min":-10,"x_max":1530,"ha":1450,"o":"m 1093 347 l 906 347 l 681 -41 q 304 -317 522 -317 q 80 -221 171 -317 q -10 16 -10 -125 q 59 238 -10 131 q 250 415 129 345 q 450 487 340 466 q 743 509 560 509 l 793 509 l 847 607 q 1120 881 958 813 q 1391 926 1224 926 q 1458 906 1434 926 q 1483 854 1483 887 q 1474 817 1483 838 l 1468 801 l 1352 509 l 1403 509 l 1421 509 q 1498 443 1498 509 q 1466 375 1498 403 q 1390 347 1435 347 l 1372 347 l 1286 347 l 1211 162 l 1321 162 l 1339 162 q 1415 96 1415 162 q 1383 28 1415 56 q 1308 0 1352 0 l 1289 0 l 1144 0 q 1049 30 1086 0 q 1013 108 1013 60 q 1040 214 1013 145 l 1093 347 m 1160 509 l 1258 750 q 1137 704 1186 745 q 1024 555 1087 663 l 996 509 l 1160 509 m 700 347 l 642 347 q 335 275 449 347 q 220 160 263 229 q 177 20 177 91 q 218 -89 177 -43 q 318 -135 259 -135 q 499 0 420 -135 l 700 347 m 1437 1159 q 1503 1133 1476 1159 q 1530 1068 1530 1106 q 1503 1002 1530 1029 q 1437 976 1476 976 q 1372 1002 1399 976 q 1346 1068 1346 1029 q 1372 1133 1346 1106 q 1437 1159 1399 1159 m 1160 1159 q 1225 1133 1198 1159 q 1252 1068 1252 1106 q 1225 1002 1252 1029 q 1160 976 1198 976 q 1094 1002 1121 976 q 1068 1068 1068 1029 q 1094 1133 1068 1106 q 1160 1159 1121 1159 "},"¸":{"x_min":269,"x_max":559,"ha":695,"o":"m 421 -59 q 444 -56 433 -56 q 525 -94 491 -56 q 559 -185 559 -133 q 516 -292 559 -251 q 406 -334 474 -334 l 324 -334 q 269 -298 269 -334 q 343 -238 269 -238 l 394 -238 q 452 -187 452 -238 q 409 -142 452 -142 q 371 -154 388 -142 q 330 -169 350 -169 q 293 -132 293 -169 q 305 -93 293 -115 l 362 11 q 416 50 383 50 q 456 13 456 50 q 441 -27 456 -3 l 421 -59 "},"a":{"x_min":64,"x_max":687,"ha":649,"o":"m 526 146 l 601 146 q 687 87 687 146 q 656 23 687 46 q 572 0 625 0 l 485 0 q 406 45 427 0 q 307 0 355 0 l 230 0 q 109 53 155 0 q 64 192 64 106 q 153 425 64 322 q 357 528 243 528 q 484 467 444 528 q 573 519 518 519 q 622 499 602 519 q 643 452 643 480 q 632 407 643 433 l 624 388 l 526 146 m 280 146 l 297 146 q 371 191 353 146 l 419 307 q 429 345 429 330 q 410 377 429 364 q 367 391 392 391 q 270 333 317 391 q 224 215 224 276 q 280 146 224 146 "},"—":{"x_min":52,"x_max":850,"ha":798,"o":"m 129 347 l 772 347 l 785 347 q 850 289 850 347 q 785 231 850 231 l 772 231 l 129 231 l 116 231 q 70 246 88 231 q 52 289 52 262 q 69 331 52 315 q 116 347 87 347 l 129 347 "},"=":{"x_min":89,"x_max":781,"ha":648,"o":"m 293 597 l 695 597 q 781 540 781 597 q 750 480 781 502 q 666 458 720 458 l 265 458 q 179 514 179 458 q 209 574 179 552 q 293 597 240 597 m 203 375 l 605 375 q 691 318 691 375 q 660 258 691 280 q 577 236 630 236 l 174 236 q 89 292 89 236 q 119 352 89 330 q 203 375 150 375 "},"N":{"x_min":-10,"x_max":1660,"ha":1380,"o":"m 1451 764 l 1177 87 l 1164 55 q 1068 -10 1135 -10 q 993 19 1015 -10 q 965 125 971 48 l 933 535 l 792 185 q 662 -100 706 -25 q 546 -231 617 -176 q 309 -312 443 -312 q 78 -222 167 -312 q -10 10 -10 -132 q 129 344 -10 201 q 317 468 204 421 q 538 516 430 516 q 628 492 595 516 q 662 429 662 469 q 635 368 662 388 q 548 342 609 347 q 330 280 413 329 q 221 172 261 238 q 181 33 181 105 q 220 -88 181 -44 q 330 -133 260 -133 q 472 -62 410 -133 q 605 185 533 8 l 874 846 q 983 935 910 935 q 1075 834 1068 935 l 1110 382 l 1294 834 l 1305 861 q 1398 925 1332 925 l 1426 926 l 1565 926 q 1660 862 1660 926 q 1626 789 1660 815 q 1534 764 1593 764 l 1451 764 "},"˚":{"x_min":348,"x_max":588,"ha":695,"o":"m 468 807 q 552 771 517 807 q 588 687 588 736 q 552 602 588 637 q 468 567 517 567 q 383 602 418 567 q 348 687 348 637 q 383 771 348 736 q 468 807 418 807 m 467 730 q 436 716 449 730 q 423 685 423 703 q 436 653 423 666 q 467 640 449 640 q 499 653 486 640 q 513 685 513 666 q 499 716 513 703 q 467 730 486 730 "},"ú":{"x_min":64,"x_max":707,"ha":668,"o":"m 541 146 l 620 146 q 687 132 667 146 q 707 87 707 118 q 676 23 707 46 q 592 0 646 0 l 470 0 q 394 43 413 0 q 301 0 357 0 l 202 0 q 103 37 142 0 q 64 131 64 74 q 81 207 64 164 l 173 433 q 279 528 212 528 q 328 509 308 528 q 349 463 349 490 q 338 416 349 442 l 330 397 l 259 223 l 252 202 q 246 176 246 185 q 285 146 244 146 q 397 214 369 146 l 481 423 q 588 519 519 519 q 637 499 617 519 q 658 454 658 480 q 640 388 658 433 l 541 146 m 559 660 l 476 594 q 424 571 446 571 q 392 584 406 571 q 378 617 378 598 q 380 631 378 624 l 386 644 l 411 712 q 475 757 428 757 l 514 757 q 583 703 583 757 q 559 660 583 678 "},"2":{"x_min":89,"x_max":707,"ha":648,"o":"m 343 146 l 545 146 q 631 86 631 146 q 600 22 631 45 q 516 0 570 0 l 179 0 q 113 21 138 0 q 89 77 89 42 q 122 149 89 114 l 502 540 q 535 609 535 573 q 509 666 535 642 q 449 690 484 690 q 386 665 412 690 q 361 606 361 640 q 379 546 361 579 q 395 495 395 518 q 373 439 395 461 q 316 418 351 418 q 229 468 265 418 q 193 591 193 518 q 269 770 193 697 q 459 843 346 843 q 637 778 568 843 q 707 612 707 714 q 634 442 707 517 l 343 146 "},"ü":{"x_min":64,"x_max":707,"ha":668,"o":"m 541 146 l 620 146 q 687 132 667 146 q 707 87 707 118 q 676 23 707 46 q 592 0 646 0 l 470 0 q 394 43 413 0 q 301 0 357 0 l 202 0 q 103 37 142 0 q 64 131 64 74 q 81 207 64 164 l 173 433 q 279 528 212 528 q 328 509 308 528 q 349 463 349 490 q 338 416 349 442 l 330 397 l 259 223 l 252 202 q 246 176 246 185 q 285 146 244 146 q 397 214 369 146 l 481 423 q 588 519 519 519 q 637 499 617 519 q 658 454 658 480 q 640 388 658 433 l 541 146 m 592 761 q 657 735 630 761 q 684 670 684 708 q 657 604 684 631 q 592 578 630 578 q 526 604 553 578 q 500 670 500 631 q 526 735 500 708 q 592 761 553 761 m 333 761 q 399 735 372 761 q 426 670 426 708 q 399 604 426 631 q 333 578 372 578 q 268 604 295 578 q 242 670 242 631 q 268 735 242 708 q 333 761 295 761 "},"Z":{"x_min":-51,"x_max":965,"ha":959,"o":"m 606 425 q 782 162 768 304 l 871 162 q 965 96 965 162 q 931 25 965 51 q 840 0 898 0 l 790 0 q 631 -359 775 -212 q 294 -506 487 -506 q 47 -412 145 -506 q -51 -175 -51 -318 q 58 70 -51 -21 q 349 162 167 162 l 601 162 q 472 313 575 257 l 451 324 q 395 402 395 354 q 433 478 395 433 l 678 764 l 397 764 q 304 828 304 764 q 336 900 304 874 q 429 926 369 926 l 820 926 q 934 837 934 926 q 896 755 934 798 l 606 425 m 611 0 l 451 0 q 238 -24 298 0 q 126 -178 126 -69 q 177 -292 126 -245 q 302 -340 228 -340 q 502 -242 413 -340 q 611 0 590 -144 "},"u":{"x_min":64,"x_max":707,"ha":668,"o":"m 541 146 l 620 146 q 687 132 667 146 q 707 87 707 118 q 676 23 707 46 q 592 0 646 0 l 470 0 q 394 43 413 0 q 301 0 357 0 l 202 0 q 103 37 142 0 q 64 131 64 74 q 81 207 64 164 l 173 433 q 279 528 212 528 q 328 509 308 528 q 349 463 349 490 q 338 416 349 442 l 330 397 l 259 223 l 252 202 q 246 176 246 185 q 285 146 244 146 q 397 214 369 146 l 481 423 q 588 519 519 519 q 637 499 617 519 q 658 454 658 480 q 640 388 658 433 l 541 146 "},"":{"x_min":-102,"x_max":985,"ha":827,"o":"m 438 519 l 531 519 q 618 459 618 519 q 587 395 618 418 q 503 373 557 373 l 378 373 l 74 -379 q -31 -473 36 -473 q -81 -454 -61 -473 q -102 -409 -102 -436 q -84 -344 -102 -389 l 206 373 l 160 373 q 74 431 74 373 q 104 495 74 472 q 188 519 134 519 l 265 519 l 352 731 q 456 881 395 837 q 618 926 516 926 l 695 926 q 783 867 783 926 q 752 803 783 826 q 667 780 721 780 l 647 780 q 557 756 590 780 q 501 677 524 733 l 438 519 m 703 146 l 774 146 q 861 86 861 146 q 830 22 861 45 q 746 0 800 0 l 623 0 q 544 23 573 0 q 515 87 515 47 q 534 157 515 108 l 809 831 l 816 850 q 917 926 848 926 q 964 906 944 926 q 985 861 985 887 q 974 815 985 841 l 967 796 l 703 146 "},"˜":{"x_min":294,"x_max":643.09375,"ha":695,"o":"m 316 683 l 343 717 q 417 756 373 756 q 476 733 441 756 l 497 719 q 513 713 506 713 q 530 721 521 713 l 546 737 q 580 752 560 752 q 625 735 607 752 q 643 695 644 718 q 623 648 641 669 l 584 604 q 521 574 557 574 q 454 602 489 574 q 428 618 434 618 q 405 605 419 618 q 346 579 378 579 q 309 594 324 579 q 294 633 294 610 q 316 683 294 655 "},"Ó":{"x_min":82,"x_max":985,"ha":916,"o":"m 210 463 l 176 463 q 82 527 82 463 q 114 599 82 573 q 207 625 147 625 l 302 625 l 321 650 q 745 939 532 939 q 917 877 850 939 q 985 720 985 816 q 857 511 985 585 q 603 463 772 463 l 400 463 q 300 140 300 273 q 339 21 300 66 q 443 -23 378 -23 q 622 82 533 -23 q 754 347 711 188 l 765 387 q 854 471 787 471 q 913 444 890 471 q 936 376 936 418 q 821 62 936 243 q 439 -190 663 -190 q 211 -96 300 -190 q 123 142 123 -3 q 210 463 123 280 m 505 625 l 638 625 q 806 716 806 625 q 783 761 806 743 q 728 780 761 780 q 616 738 675 780 q 505 625 556 697 m 879 1068 l 797 1002 q 745 979 767 979 q 712 992 726 979 q 698 1025 698 1006 q 700 1039 698 1032 l 706 1052 l 731 1120 q 795 1165 748 1165 l 834 1165 q 903 1111 903 1165 q 879 1068 903 1086 "},"k":{"x_min":50,"x_max":644,"ha":598,"o":"m 477 286 l 582 121 q 602 71 602 91 q 575 15 602 40 q 517 -10 549 -10 q 467 20 488 -10 l 459 32 l 302 268 l 226 80 q 119 -10 189 -10 q 70 7 90 -10 q 50 51 50 25 q 60 97 50 71 l 68 115 l 358 831 l 366 849 q 465 926 397 926 q 514 907 494 926 q 535 861 535 888 q 524 814 535 841 l 516 796 l 343 370 l 496 483 q 577 519 543 519 q 625 500 606 519 q 644 455 644 482 q 593 372 644 409 l 578 360 l 477 286 "},"ˇ":{"x_min":315,"x_max":659,"ha":695,"o":"m 466 700 l 547 744 q 606 764 584 764 q 643 746 627 764 q 659 706 659 729 q 600 637 659 668 l 521 595 q 454 574 481 574 q 418 589 437 574 q 404 601 410 596 l 349 646 q 315 707 315 675 q 331 748 315 732 q 372 764 348 764 q 426 735 394 764 l 466 700 "},"Ù":{"x_min":157,"x_max":1451,"ha":1186,"o":"m 1235 764 l 1019 231 q 888 35 964 96 q 702 -26 813 -26 q 520 38 594 -26 q 447 197 447 103 q 491 376 447 267 l 563 555 q 605 693 605 657 q 576 750 605 727 q 507 774 548 774 q 385 715 440 774 q 331 586 331 656 q 350 520 331 544 q 416 478 369 496 q 467 414 467 458 q 437 351 467 376 q 365 326 408 326 q 217 397 278 326 q 157 570 157 468 q 267 828 157 718 q 527 939 378 939 q 714 872 640 939 q 789 706 789 806 q 752 554 789 642 l 649 300 q 627 212 627 245 q 649 157 627 178 q 709 136 672 136 q 786 167 755 136 q 850 282 817 199 l 1074 832 q 1123 909 1097 892 q 1210 926 1148 926 l 1357 926 q 1451 862 1451 926 q 1418 789 1451 814 q 1325 764 1385 764 l 1235 764 m 967 1125 l 995 1060 q 1004 1024 1004 1041 q 990 991 1004 1005 q 957 978 976 978 q 912 995 936 978 l 831 1055 q 793 1113 793 1083 q 808 1151 793 1136 q 848 1167 824 1167 l 898 1167 q 967 1125 948 1167 "},"Ÿ":{"x_min":176,"x_max":1481,"ha":1247,"o":"m 1256 764 l 1012 162 l 1104 162 q 1198 95 1198 162 q 1165 25 1198 50 q 1072 0 1132 0 l 946 0 l 896 -124 q 724 -416 813 -331 q 501 -502 634 -502 q 291 -417 375 -502 q 207 -208 207 -333 q 256 -34 207 -113 q 397 96 306 45 q 718 160 513 160 l 826 162 l 849 218 q 769 201 813 201 q 610 259 673 201 q 547 408 547 318 q 577 544 547 455 l 592 584 l 606 624 q 622 695 622 666 q 593 750 622 727 q 525 774 565 774 q 406 714 460 774 q 353 583 353 654 q 371 519 353 542 q 436 478 389 496 q 485 416 485 459 q 455 351 485 377 q 383 326 426 326 q 236 397 297 326 q 176 571 176 469 q 287 828 176 718 q 547 939 398 939 q 732 871 659 939 q 806 702 806 804 q 789 607 806 653 l 762 535 q 738 439 738 468 q 761 385 738 407 q 818 363 785 363 q 902 397 868 363 q 971 518 936 432 l 1102 841 q 1148 907 1121 888 q 1226 926 1176 926 l 1386 926 q 1481 862 1481 926 q 1447 789 1481 815 q 1355 764 1414 764 l 1256 764 m 760 0 q 541 -27 617 0 q 430 -99 470 -52 q 390 -203 390 -146 q 424 -293 390 -256 q 510 -330 459 -330 q 621 -275 571 -330 q 720 -97 671 -220 l 760 0 m 1105 1159 q 1170 1133 1143 1159 q 1197 1068 1197 1106 q 1170 1002 1197 1029 q 1105 976 1143 976 q 1039 1002 1066 976 q 1013 1068 1013 1029 q 1039 1133 1013 1106 q 1105 1159 1066 1159 m 827 1159 q 893 1133 866 1159 q 920 1068 920 1106 q 893 1002 920 1029 q 827 976 866 976 q 762 1002 789 976 q 736 1068 736 1029 q 762 1133 736 1106 q 827 1159 789 1159 "},"€":{"x_min":66,"x_max":809,"ha":648,"o":"m 809 635 q 780 526 809 575 q 690 468 746 468 q 641 487 662 468 q 620 535 620 507 q 630 583 620 550 q 640 630 640 615 q 582 699 640 699 q 446 597 514 699 l 495 597 q 581 540 581 597 q 466 458 581 458 l 373 458 q 350 390 360 424 l 345 375 l 432 375 q 518 318 518 375 q 404 236 518 236 l 323 236 q 346 166 324 186 q 448 148 364 148 l 576 148 q 662 87 662 148 q 547 0 662 0 l 351 0 q 219 50 266 0 q 158 225 157 118 l 158 236 l 137 236 q 66 292 66 236 q 96 353 66 331 q 166 375 126 375 l 175 375 q 200 458 185 414 q 115 514 115 458 q 158 575 115 543 q 242 597 188 597 l 261 597 q 381 752 313 690 q 598 843 480 843 q 740 794 684 843 q 809 635 809 734 "},"¢":{"x_min":157,"x_max":630,"ha":648,"o":"m 557 656 q 630 520 630 618 q 604 440 630 471 q 537 410 578 410 q 477 470 477 410 q 478 485 477 479 q 479 499 479 495 q 430 544 479 544 q 351 497 387 544 q 316 394 316 450 q 334 335 316 358 q 383 313 353 313 q 431 325 402 313 q 470 335 456 335 q 513 314 496 335 q 530 263 530 294 q 401 158 530 164 q 319 78 389 78 q 267 97 287 78 q 248 145 248 116 q 253 181 248 158 q 157 373 157 253 q 224 571 157 486 q 401 681 291 656 q 487 752 421 752 q 539 732 519 752 q 560 681 560 712 q 557 656 560 673 "},"Ω":{"x_min":40,"x_max":886,"ha":926,"o":"m 40 0 l 40 155 l 235 155 q 86 302 132 220 q 40 505 40 384 q 159 823 40 698 q 464 948 279 948 q 767 823 648 948 q 886 505 886 698 q 839 301 886 384 q 691 155 793 219 l 886 155 l 886 0 l 514 0 l 514 137 q 663 280 616 196 q 710 489 710 363 q 640 707 710 621 q 464 794 570 794 q 286 707 356 794 q 216 489 216 620 q 414 137 216 248 l 414 0 l 40 0 "},"ß":{"x_min":50,"x_max":810,"ha":685,"o":"m 643 487 q 711 333 711 425 q 676 182 711 256 q 583 61 641 107 q 392 -10 493 -10 q 299 16 337 -10 q 262 81 262 43 q 283 129 262 109 q 334 150 304 150 q 349 149 339 150 l 360 147 q 371 147 369 147 q 399 145 392 145 q 504 204 459 145 q 549 343 549 264 q 538 403 549 383 q 495 445 527 424 q 452 507 452 475 q 469 554 452 537 q 531 579 487 570 q 618 627 586 591 q 650 713 650 662 q 578 785 650 785 q 473 692 511 785 l 223 77 l 216 58 q 119 -18 186 -18 q 69 0 89 -18 q 50 48 50 19 q 60 93 50 67 l 67 111 l 325 746 q 576 931 401 931 q 745 872 680 931 q 810 721 810 814 q 765 577 810 639 q 643 487 720 514 "},"é":{"x_min":64,"x_max":590,"ha":552,"o":"m 226 199 q 303 146 226 146 l 504 146 q 590 86 590 146 q 559 22 590 45 q 475 0 529 0 l 283 0 q 120 52 176 0 q 64 207 64 105 q 152 433 64 338 q 363 528 241 528 q 506 481 452 528 q 560 359 560 435 q 485 224 560 268 q 362 199 444 199 l 226 199 m 259 322 l 333 322 q 404 353 406 322 q 357 390 401 390 q 259 322 294 390 m 502 660 l 419 594 q 367 571 389 571 q 335 584 349 571 q 321 617 321 598 q 323 631 321 624 l 329 644 l 354 712 q 418 757 371 757 l 457 757 q 526 703 526 757 q 502 660 526 678 "},"s":{"x_min":50,"x_max":500,"ha":485,"o":"m 289 332 l 276 301 q 191 234 246 234 q 142 253 164 234 q 120 297 120 272 q 139 361 120 321 l 229 544 q 312 611 263 611 q 358 593 339 611 q 377 552 377 576 q 372 526 377 546 q 370 499 370 511 q 401 412 370 457 l 440 358 q 500 200 500 276 q 436 57 500 114 q 277 0 372 0 l 135 0 q 50 58 50 0 q 80 122 50 99 q 164 146 110 146 l 242 146 q 338 214 338 146 q 320 274 338 240 l 289 332 "},"B":{"x_min":-139,"x_max":1251,"ha":1186,"o":"m 741 764 l 665 764 l 647 764 q 571 829 571 764 q 602 897 571 869 q 678 926 633 926 l 696 926 l 971 926 q 1178 867 1105 926 q 1251 700 1251 808 q 1196 531 1251 606 q 1049 425 1141 457 q 1174 217 1174 364 q 1122 32 1174 123 q 987 -111 1071 -57 q 645 -185 874 -185 l 545 -185 l 537 -203 q 463 -352 490 -309 q 393 -435 436 -395 q 134 -539 280 -539 q -61 -468 16 -539 q -139 -288 -139 -397 q -105 -158 -139 -218 q -15 -65 -72 -98 q 185 -23 58 -23 l 421 -23 l 741 764 m 828 509 l 868 510 q 1013 554 964 510 q 1056 614 1039 577 q 1074 681 1074 650 q 1024 756 1074 738 q 942 764 1004 764 l 931 764 l 828 509 m 612 -23 l 667 -23 q 888 27 812 -23 q 966 114 936 59 q 997 226 997 170 q 957 319 997 292 q 818 347 917 347 l 762 347 l 612 -23 m 356 -185 l 179 -185 q 48 -279 48 -185 q 76 -343 48 -317 q 146 -370 105 -370 q 263 -321 208 -370 q 356 -185 318 -272 "},"…":{"x_min":102,"x_max":983,"ha":1039,"o":"m 196 171 q 263 143 235 171 q 291 76 291 115 q 263 9 291 37 q 196 -18 235 -18 q 129 9 157 -18 q 102 76 102 37 q 129 143 102 115 q 196 171 157 171 m 542 171 q 609 143 581 171 q 637 76 637 115 q 609 9 637 37 q 542 -18 581 -18 q 475 9 503 -18 q 448 76 448 37 q 475 143 448 115 q 542 171 503 171 m 888 171 q 955 143 927 171 q 983 76 983 115 q 955 9 983 37 q 888 -18 927 -18 q 821 9 849 -18 q 794 76 794 37 q 821 143 794 115 q 888 171 849 171 "},"?":{"x_min":184,"x_max":706,"ha":575,"o":"m 278 171 q 345 143 317 171 q 373 76 373 115 q 345 9 373 37 q 278 -18 317 -18 q 211 9 239 -18 q 184 76 184 37 q 211 143 184 115 q 278 171 239 171 m 469 870 q 637 807 569 870 q 706 652 706 745 q 677 540 706 589 q 575 432 648 491 q 447 309 459 337 l 420 250 q 354 206 400 206 q 302 227 323 206 q 281 280 281 248 q 437 515 281 373 q 518 594 502 574 q 534 641 534 615 q 510 694 534 672 q 453 716 486 716 q 388 690 416 716 q 360 630 360 664 q 372 577 360 618 q 380 536 380 553 q 359 485 380 506 q 309 465 338 465 q 228 508 260 465 q 197 616 197 551 q 273 798 197 726 q 469 870 350 870 "},"H":{"x_min":-15,"x_max":1472,"ha":1434,"o":"m 1260 347 l 1184 162 l 1302 162 l 1319 162 q 1396 95 1396 162 q 1362 25 1396 50 q 1270 0 1329 0 l 1131 0 q 1026 30 1065 0 q 988 112 988 60 q 1003 182 988 145 l 1014 209 l 1070 347 l 854 347 l 722 22 q 315 -314 585 -314 q 78 -224 171 -314 q -15 4 -15 -134 q 39 209 -15 111 q 192 377 93 306 q 386 471 275 436 q 604 505 497 505 l 701 508 l 731 509 l 863 833 l 870 853 q 978 935 904 935 q 1033 914 1011 935 q 1056 866 1056 894 q 1037 796 1056 843 l 920 509 l 1136 509 l 1267 831 l 1275 851 q 1384 935 1310 935 q 1438 914 1416 935 q 1461 864 1461 894 q 1441 792 1461 841 l 1325 509 l 1378 509 l 1396 509 q 1472 442 1472 509 q 1438 372 1472 397 q 1346 347 1405 347 l 1260 347 m 665 347 l 628 347 q 308 255 428 347 q 209 146 245 208 q 174 25 174 84 q 216 -91 174 -45 q 324 -138 259 -138 q 562 94 468 -138 l 665 347 "},"î":{"x_min":64,"x_max":498,"ha":376,"o":"m 346 639 l 265 595 q 206 575 228 575 q 169 592 185 575 q 154 632 154 610 q 211 702 154 671 l 291 744 q 358 765 330 765 q 394 750 375 765 q 408 738 400 744 l 463 693 q 498 631 498 664 q 481 591 498 607 q 440 576 464 576 q 386 604 418 576 l 346 639 m 252 146 l 328 146 q 414 86 414 146 q 383 22 414 45 q 299 0 353 0 l 191 0 q 98 24 132 0 q 64 90 64 48 q 78 147 64 113 l 190 423 l 197 442 q 298 519 228 519 q 347 499 326 519 q 368 454 368 480 q 349 387 368 432 l 252 146 "},"c":{"x_min":64,"x_max":567,"ha":528,"o":"m 452 0 l 255 0 q 117 59 170 0 q 64 214 64 119 q 151 434 64 340 q 357 528 239 528 q 487 483 437 528 q 538 366 538 438 q 512 283 538 315 q 448 251 487 251 q 386 309 386 251 q 386 324 386 318 q 387 339 387 332 q 340 387 387 387 q 259 339 295 387 q 223 234 223 292 q 252 166 223 186 q 352 146 282 146 l 480 146 q 567 86 567 146 q 536 23 567 46 q 452 0 505 0 "},"¶":{"x_min":61,"x_max":929,"ha":648,"o":"m 771 787 l 397 -137 q 311 -214 367 -214 q 272 -198 288 -214 q 256 -162 256 -183 q 270 -109 256 -144 l 632 787 l 576 787 l 202 -137 q 116 -214 172 -214 q 77 -199 93 -214 q 61 -162 61 -184 q 69 -124 61 -146 l 75 -109 l 316 485 q 168 669 168 498 q 266 891 168 809 q 481 949 335 949 l 835 949 q 929 883 929 949 q 896 812 929 837 q 804 787 863 787 l 771 787 "},"≠":{"x_min":90,"x_max":781,"ha":648,"o":"m 636 598 l 695 598 q 781 541 781 598 q 750 481 781 503 q 666 459 720 459 l 549 459 l 496 375 l 605 375 q 691 318 691 375 q 660 258 691 280 q 577 236 630 236 l 408 236 l 385 199 q 295 137 346 137 q 243 154 264 137 q 222 197 222 172 q 234 236 222 210 l 174 236 q 90 292 90 236 q 120 352 90 330 q 203 375 150 375 l 321 375 l 374 459 l 265 459 q 179 515 179 459 q 209 575 179 553 q 293 598 240 598 l 461 598 l 484 634 q 576 697 524 697 q 627 679 606 697 q 649 635 649 661 q 636 598 649 622 "},"•":{"x_min":272,"x_max":657,"ha":926,"o":"m 464 663 q 600 606 544 663 q 657 470 657 550 q 600 334 657 390 q 464 278 544 278 q 328 334 384 278 q 272 470 272 390 q 328 606 272 550 q 464 663 384 663 "},"¥":{"x_min":154,"x_max":795,"ha":648,"o":"m 688 601 q 746 543 746 593 q 715 478 746 502 q 630 454 684 454 l 572 454 l 513 380 l 520 380 q 605 321 605 380 q 574 255 605 279 q 489 231 543 231 l 427 231 l 365 80 q 258 -10 327 -10 q 209 7 229 -10 q 189 51 189 25 q 199 97 189 71 l 206 115 l 253 231 l 238 231 q 154 289 154 231 q 184 356 154 332 q 269 380 215 380 l 309 380 l 309 454 l 277 454 q 193 512 193 454 q 223 577 193 553 q 307 601 254 601 l 307 721 l 306 734 l 320 787 q 400 834 349 834 q 465 753 465 834 l 465 736 l 465 553 l 621 768 l 634 785 q 722 843 673 843 q 774 822 754 843 q 795 770 795 802 q 754 685 795 736 l 688 601 "},"(":{"x_min":182,"x_max":679,"ha":507,"o":"m 605 1001 q 658 982 637 1001 q 679 933 679 963 q 637 854 679 906 q 421 494 487 665 q 355 122 355 322 q 371 -109 355 31 q 374 -143 374 -130 q 304 -213 374 -213 q 218 -135 245 -213 q 182 183 182 -32 q 405 827 182 523 q 521 963 477 925 q 605 1001 564 1001 "},"U":{"x_min":157,"x_max":1451,"ha":1186,"o":"m 1235 764 l 1019 231 q 888 35 964 96 q 702 -26 813 -26 q 520 38 594 -26 q 447 197 447 103 q 491 376 447 267 l 563 555 q 605 693 605 657 q 576 750 605 727 q 507 774 548 774 q 385 715 440 774 q 331 586 331 656 q 350 520 331 544 q 416 478 369 496 q 467 414 467 458 q 437 351 467 376 q 365 326 408 326 q 217 397 278 326 q 157 570 157 468 q 267 828 157 718 q 527 939 378 939 q 714 872 640 939 q 789 706 789 806 q 752 554 789 642 l 649 300 q 627 212 627 245 q 649 157 627 178 q 709 136 672 136 q 786 167 755 136 q 850 282 817 199 l 1074 832 q 1123 909 1097 892 q 1210 926 1148 926 l 1357 926 q 1451 862 1451 926 q 1418 789 1451 814 q 1325 764 1385 764 l 1235 764 "},"◊":{"x_min":102.40625,"x_max":824.046875,"ha":926,"o":"m 463 962 l 824 463 l 463 -35 l 102 463 l 463 962 m 463 839 l 189 463 l 463 86 l 736 463 l 463 839 "},"Ñ":{"x_min":-10,"x_max":1660,"ha":1380,"o":"m 1451 764 l 1177 87 l 1164 55 q 1068 -10 1135 -10 q 993 19 1015 -10 q 965 125 971 48 l 933 535 l 792 185 q 662 -100 706 -25 q 546 -231 617 -176 q 309 -312 443 -312 q 78 -222 167 -312 q -10 10 -10 -132 q 129 344 -10 201 q 317 468 204 421 q 538 516 430 516 q 628 492 595 516 q 662 429 662 469 q 635 368 662 388 q 548 342 609 347 q 330 280 413 329 q 221 172 261 238 q 181 33 181 105 q 220 -88 181 -44 q 330 -133 260 -133 q 472 -62 410 -133 q 605 185 533 8 l 874 846 q 983 935 910 935 q 1075 834 1068 935 l 1110 382 l 1294 834 l 1305 861 q 1398 925 1332 925 l 1426 926 l 1565 926 q 1660 862 1660 926 q 1626 789 1660 815 q 1534 764 1593 764 l 1451 764 m 1066 1081 l 1093 1115 q 1167 1154 1123 1154 q 1226 1131 1191 1154 l 1247 1117 q 1263 1111 1256 1111 q 1279 1119 1271 1111 l 1296 1135 q 1330 1150 1310 1150 q 1374 1134 1356 1150 q 1393 1095 1393 1118 q 1373 1046 1393 1069 l 1334 1002 q 1271 972 1307 972 q 1204 1000 1239 972 q 1178 1016 1184 1016 q 1155 1003 1169 1016 q 1096 977 1128 977 q 1059 992 1074 977 q 1044 1031 1044 1008 q 1066 1081 1044 1053 "},"F":{"x_min":-28,"x_max":1419,"ha":1131,"o":"m 900 509 l 987 509 l 1005 509 q 1081 443 1081 509 q 1050 375 1081 403 q 973 347 1019 347 l 956 347 l 834 347 l 702 22 q 296 -314 565 -314 q 64 -223 156 -314 q -28 4 -28 -133 q 26 209 -28 111 q 179 377 81 306 q 373 471 263 436 q 592 505 484 505 l 688 508 l 718 509 l 848 837 l 855 856 q 895 912 871 898 q 976 926 919 926 l 1324 926 q 1419 859 1419 926 q 1387 792 1419 820 q 1311 764 1356 764 l 1293 764 l 1003 764 l 900 509 m 652 347 l 615 347 q 295 255 415 347 q 161 24 161 153 q 203 -91 161 -44 q 308 -138 245 -138 q 549 94 455 -138 l 652 347 "},"­":{"x_min":52,"x_max":318,"ha":266,"o":"m 129 347 l 240 347 l 253 347 q 318 289 318 347 q 253 231 318 231 l 240 231 l 129 231 l 116 231 q 70 246 88 231 q 52 289 52 262 q 69 331 52 315 q 116 347 87 347 l 129 347 "},":":{"x_min":102,"x_max":346,"ha":347,"o":"m 251 448 q 318 420 290 448 q 346 353 346 392 q 318 286 346 314 q 251 259 290 259 q 184 286 212 259 q 157 353 157 314 q 184 420 157 392 q 251 448 212 448 m 196 171 q 263 143 235 171 q 291 76 291 115 q 263 9 291 37 q 196 -18 235 -18 q 129 9 157 -18 q 102 76 102 37 q 129 143 102 115 q 196 171 157 171 "},"Û":{"x_min":157,"x_max":1451,"ha":1186,"o":"m 1235 764 l 1019 231 q 888 35 964 96 q 702 -26 813 -26 q 520 38 594 -26 q 447 197 447 103 q 491 376 447 267 l 563 555 q 605 693 605 657 q 576 750 605 727 q 507 774 548 774 q 385 715 440 774 q 331 586 331 656 q 350 520 331 544 q 416 478 369 496 q 467 414 467 458 q 437 351 467 376 q 365 326 408 326 q 217 397 278 326 q 157 570 157 468 q 267 828 157 718 q 527 939 378 939 q 714 872 640 939 q 789 706 789 806 q 752 554 789 642 l 649 300 q 627 212 627 245 q 649 157 627 178 q 709 136 672 136 q 786 167 755 136 q 850 282 817 199 l 1074 832 q 1123 909 1097 892 q 1210 926 1148 926 l 1357 926 q 1451 862 1451 926 q 1418 789 1451 814 q 1325 764 1385 764 l 1235 764 m 974 1037 l 894 993 q 837 973 857 973 q 799 989 816 973 q 783 1029 783 1006 q 840 1100 783 1069 l 920 1142 q 987 1163 959 1163 q 1023 1148 1004 1163 q 1037 1136 1030 1141 l 1092 1091 q 1127 1030 1127 1062 q 1110 989 1127 1005 q 1069 974 1093 974 q 1014 1002 1046 974 l 974 1037 "},"*":{"x_min":271,"x_max":736,"ha":648,"o":"m 475 703 l 334 750 q 293 769 302 761 q 284 799 284 778 q 308 864 284 838 q 368 890 332 890 q 393 883 385 890 q 417 848 401 876 l 488 717 l 488 865 q 501 919 488 904 q 550 935 515 935 q 608 912 583 935 q 634 860 634 890 q 606 817 634 846 l 504 710 l 645 755 q 683 765 675 765 q 719 741 702 765 q 736 690 736 717 q 716 638 736 663 q 676 614 697 614 q 637 628 666 614 l 503 692 l 589 572 q 611 530 611 542 q 585 484 611 505 q 531 463 560 463 q 482 476 503 463 q 462 509 462 490 q 465 541 462 515 l 485 687 l 397 568 q 372 538 379 543 q 350 533 365 533 q 294 558 318 533 q 271 619 271 584 q 281 659 271 649 q 330 677 292 670 l 475 703 "},"†":{"x_min":142,"x_max":867,"ha":708,"o":"m 668 730 l 798 730 q 867 664 867 730 q 761 573 867 573 l 604 573 l 333 -99 q 281 -189 306 -165 q 213 -214 255 -214 q 142 -146 142 -214 q 150 -103 142 -125 l 424 573 l 307 573 q 259 592 279 573 q 239 638 239 611 q 269 706 239 683 q 356 730 299 730 l 483 730 l 543 878 q 649 972 580 972 q 703 951 682 972 q 725 897 725 930 q 715 848 725 873 l 668 730 "},"∕":{"x_min":-18,"x_max":478,"ha":248,"o":"m -9 28 l 388 834 q 442 868 405 868 q 478 840 478 868 q 469 814 478 831 l 71 9 q 17 -24 55 -24 q -18 3 -18 -24 q -9 28 -18 11 "},"°":{"x_min":195,"x_max":618,"ha":499,"o":"m 406 935 q 556 874 494 935 q 618 728 618 813 q 556 580 618 641 q 406 519 494 519 q 256 580 318 519 q 195 728 195 641 q 256 874 195 813 q 406 935 318 935 m 407 835 q 329 803 361 835 q 298 727 298 771 q 329 650 298 682 q 407 619 361 619 q 484 650 452 619 q 516 727 516 682 q 483 803 516 771 q 407 835 451 835 "},"V":{"x_min":129,"x_max":1436,"ha":1161,"o":"m 1232 764 l 815 60 q 690 -28 762 -28 q 589 99 589 -28 l 579 555 q 557 722 579 679 q 475 766 536 766 q 364 707 418 766 q 311 589 311 649 q 341 510 311 540 q 424 481 372 481 q 448 481 436 481 q 465 482 463 482 q 548 413 548 482 q 501 338 548 368 q 384 308 454 308 q 200 382 272 308 q 129 573 129 457 q 243 824 129 713 q 502 935 357 935 q 709 839 642 935 q 744 741 734 803 q 754 555 754 680 l 754 286 l 1082 846 l 1099 875 q 1136 915 1116 904 q 1196 925 1156 925 l 1222 926 l 1342 926 q 1436 860 1436 926 q 1402 789 1436 815 q 1310 764 1369 764 l 1232 764 "},"å":{"x_min":64,"x_max":687,"ha":649,"o":"m 526 146 l 601 146 q 687 87 687 146 q 656 23 687 46 q 572 0 625 0 l 485 0 q 406 45 427 0 q 307 0 355 0 l 230 0 q 109 53 155 0 q 64 192 64 106 q 153 425 64 322 q 357 528 243 528 q 484 467 444 528 q 573 519 518 519 q 622 499 602 519 q 643 452 643 480 q 632 407 643 433 l 624 388 l 526 146 m 280 146 l 297 146 q 371 191 353 146 l 419 307 q 429 345 429 330 q 410 377 429 364 q 367 391 392 391 q 270 333 317 391 q 224 215 224 276 q 280 146 224 146 m 445 807 q 529 771 494 807 q 565 687 565 736 q 529 602 565 637 q 445 567 494 567 q 360 602 395 567 q 325 687 325 637 q 360 771 325 736 q 445 807 395 807 m 444 730 q 413 716 426 730 q 400 685 400 703 q 413 653 400 666 q 444 640 426 640 q 476 653 463 640 q 490 685 490 666 q 476 716 490 703 q 444 730 463 730 "}," ":{"x_min":0,"x_max":0,"ha":347},"0":{"x_min":92,"x_max":750,"ha":648,"o":"m 532 843 q 690 773 631 843 q 750 588 750 704 q 689 293 750 442 q 536 64 628 144 q 321 -14 446 -14 q 153 50 214 -14 q 92 225 92 114 q 155 514 92 364 q 315 752 219 665 q 532 843 414 843 m 515 697 q 352 551 434 697 q 284 390 311 477 q 257 244 257 304 q 279 166 257 195 q 339 137 302 137 q 490 260 419 137 q 561 428 533 334 q 590 591 590 522 q 515 697 590 697 "},"”":{"x_min":259.953125,"x_max":676,"ha":509,"o":"m 315 804 q 294 862 294 837 q 318 920 294 896 q 378 944 343 944 q 438 919 414 944 q 463 859 463 895 q 382 735 463 801 q 294 685 321 685 q 270 694 281 685 q 260 714 259 703 q 275 749 260 728 l 288 767 l 315 804 m 528 804 q 507 862 507 837 q 531 920 507 896 q 591 944 556 944 q 651 919 627 944 q 676 859 676 895 q 596 735 676 801 q 507 685 534 685 q 483 694 494 685 q 473 714 472 703 q 488 749 473 728 l 501 767 l 528 804 "},"¾":{"x_min":178,"x_max":1111,"ha":1084,"o":"m 470 640 q 534 526 534 598 q 476 382 534 440 q 335 325 419 325 q 222 361 266 325 q 178 457 178 398 q 200 531 178 501 q 255 562 222 562 q 288 549 274 562 q 302 519 302 536 q 298 497 302 509 l 295 488 q 291 463 291 471 q 338 423 291 423 q 396 453 371 423 q 421 522 421 483 q 371 584 421 568 q 334 625 334 595 q 348 661 334 644 l 356 669 l 418 737 l 331 737 q 275 775 275 737 q 294 817 275 800 q 341 834 313 834 l 352 834 l 512 834 q 581 783 581 834 q 563 739 581 758 l 470 640 m 408 28 l 807 834 q 861 868 824 868 q 897 840 897 868 q 888 814 897 831 l 490 9 q 435 -24 473 -24 q 400 3 400 -24 q 408 28 400 11 m 1018 201 l 1037 201 q 1094 162 1094 201 q 1073 118 1094 134 q 1017 103 1053 103 l 979 103 l 959 55 q 888 -5 935 -5 q 842 37 842 -5 q 848 65 842 49 l 853 76 l 864 103 l 783 103 q 724 120 746 103 q 703 166 703 137 q 723 218 703 196 l 738 234 l 942 448 q 1043 507 998 507 q 1091 489 1072 507 q 1111 445 1111 471 q 1098 396 1111 427 l 1018 201 m 904 201 l 973 358 l 830 201 l 904 201 "},"@":{"x_min":168,"x_max":1143,"ha":1015,"o":"m 830 356 l 872 356 q 965 429 925 356 q 1006 602 1006 503 q 933 763 1006 703 q 739 824 860 824 q 413 672 540 824 q 307 391 307 545 q 416 160 307 238 q 510 120 464 126 q 768 114 555 114 l 857 114 q 900 96 883 114 q 917 54 917 79 q 811 -18 917 -18 l 635 -18 q 342 49 441 -18 q 213 194 258 105 q 168 391 168 284 q 204 583 168 485 q 306 758 241 682 q 498 902 386 851 q 735 954 610 954 q 1029 857 916 954 q 1143 607 1143 760 q 1056 337 1143 456 q 861 218 970 218 l 791 218 q 718 260 737 218 q 626 218 670 218 l 554 218 q 442 267 484 218 q 400 396 400 316 q 483 612 400 517 q 672 708 566 708 q 790 652 752 708 q 872 700 822 700 q 919 682 900 700 q 938 639 938 664 q 927 597 938 620 l 921 579 l 830 356 m 600 352 l 616 352 q 685 394 668 352 l 730 503 q 739 539 739 525 q 722 569 739 556 q 682 582 705 582 q 592 528 635 582 q 549 417 549 474 q 600 352 549 352 "},"ö":{"x_min":65,"x_max":638,"ha":575,"o":"m 377 528 q 539 465 476 528 q 603 307 603 403 q 569 163 603 234 q 483 48 536 91 q 410 10 448 21 q 305 0 373 0 q 155 26 194 0 q 65 210 65 88 q 157 433 65 339 q 377 528 250 528 m 361 384 q 269 334 310 384 q 228 224 228 284 q 316 146 228 146 q 395 177 367 146 q 442 297 442 230 q 419 360 442 336 q 361 384 397 384 m 546 761 q 611 735 584 761 q 638 670 638 708 q 611 604 638 631 q 546 578 584 578 q 480 604 507 578 q 454 670 454 631 q 480 735 454 708 q 546 761 507 761 m 287 761 q 353 735 326 761 q 380 670 380 708 q 353 604 380 631 q 287 578 326 578 q 222 604 249 578 q 196 670 196 631 q 222 735 196 708 q 287 761 249 761 "},"i":{"x_min":64,"x_max":437,"ha":376,"o":"m 252 146 l 328 146 q 414 86 414 146 q 383 22 414 45 q 299 0 353 0 l 191 0 q 98 24 132 0 q 64 90 64 48 q 78 147 64 113 l 190 423 l 197 442 q 298 519 228 519 q 347 499 326 519 q 368 454 368 480 q 349 387 368 432 l 252 146 m 342 736 q 409 708 381 736 q 437 641 437 680 q 409 574 437 602 q 342 547 381 547 q 275 574 303 547 q 248 641 248 602 q 275 708 248 680 q 342 736 303 736 "},"≤":{"x_min":46,"x_max":648,"ha":695,"o":"m 648 919 l 648 758 l 227 564 l 648 370 l 648 208 l 46 489 l 46 633 l 648 919 m 648 170 l 648 10 l 46 10 l 46 170 l 648 170 "},"Õ":{"x_min":82,"x_max":985,"ha":916,"o":"m 210 463 l 176 463 q 82 527 82 463 q 114 599 82 573 q 207 625 147 625 l 302 625 l 321 650 q 745 939 532 939 q 917 877 850 939 q 985 720 985 816 q 857 511 985 585 q 603 463 772 463 l 400 463 q 300 140 300 273 q 339 21 300 66 q 443 -23 378 -23 q 622 82 533 -23 q 754 347 711 188 l 765 387 q 854 471 787 471 q 913 444 890 471 q 936 376 936 418 q 821 62 936 243 q 439 -190 663 -190 q 211 -96 300 -190 q 123 142 123 -3 q 210 463 123 280 m 505 625 l 638 625 q 806 716 806 625 q 783 761 806 743 q 728 780 761 780 q 616 738 675 780 q 505 625 556 697 m 621 1081 l 648 1115 q 722 1154 678 1154 q 781 1131 746 1154 l 802 1117 q 818 1111 811 1111 q 835 1119 826 1111 l 851 1135 q 885 1150 865 1150 q 929 1134 911 1150 q 948 1095 948 1118 q 928 1046 948 1069 l 889 1002 q 826 972 862 972 q 759 1000 794 972 q 733 1016 739 1016 q 710 1003 724 1016 q 651 977 683 977 q 614 992 629 977 q 599 1031 599 1008 q 621 1081 599 1053 "},"þ":{"x_min":-139,"x_max":634,"ha":606,"o":"m 383 478 q 487 528 428 528 q 593 473 552 528 q 634 332 634 418 q 530 60 634 165 q 460 12 496 25 q 360 0 424 0 q 264 9 290 0 q 210 52 238 19 l 33 -382 q -73 -473 -2 -473 q -119 -455 -100 -473 q -139 -411 -139 -437 q -122 -348 -139 -390 l 360 840 q 468 935 398 935 q 515 916 496 935 q 534 871 534 898 q 523 823 534 850 l 515 804 l 383 478 m 266 191 q 298 152 283 161 q 347 144 313 144 q 422 179 395 144 q 477 328 477 252 q 414 394 477 394 q 316 314 346 394 q 311 300 313 306 l 266 191 "},"]":{"x_min":10,"x_max":780,"ha":558,"o":"m 236 -18 l 553 806 l 496 806 q 420 821 443 806 q 397 873 397 837 q 526 973 397 973 l 698 973 q 780 911 780 973 q 773 874 780 893 l 761 842 l 398 -90 q 352 -163 378 -142 q 282 -185 326 -185 l 99 -185 l 69 -185 q 27 -167 44 -185 q 10 -123 10 -149 q 47 -44 10 -77 q 161 -18 77 -18 l 236 -18 "},"m":{"x_min":50,"x_max":1046,"ha":1008,"o":"m 879 146 l 960 146 q 1046 86 1046 146 q 1015 22 1046 45 q 931 0 985 0 l 794 0 q 721 23 749 0 q 694 86 694 47 q 712 157 694 112 l 774 312 q 780 337 780 326 q 735 382 780 382 q 667 350 700 382 q 612 268 633 319 l 537 80 q 428 -10 499 -10 q 381 8 401 -10 q 362 51 362 26 q 372 97 362 71 l 379 116 l 456 305 q 467 344 467 330 q 453 370 467 359 q 421 382 439 382 q 305 276 348 382 l 225 81 q 117 -10 188 -10 q 70 7 90 -10 q 50 51 50 25 q 60 97 50 72 l 67 116 l 202 449 q 288 519 231 519 q 361 463 347 519 q 436 515 407 502 q 507 528 465 528 q 643 448 598 528 q 814 528 719 528 q 923 490 879 528 q 967 397 967 452 q 952 325 967 362 l 879 146 "},"8":{"x_min":104,"x_max":752,"ha":648,"o":"m 598 448 q 665 300 665 387 q 569 79 665 172 q 343 -14 474 -14 q 170 46 236 -14 q 104 203 104 107 q 155 367 104 294 q 290 470 206 440 q 241 590 241 521 q 328 767 241 692 q 537 843 416 843 q 692 789 633 843 q 752 648 752 735 q 711 525 752 577 q 598 448 671 472 m 516 702 q 436 664 472 702 q 400 582 400 627 q 421 531 400 551 q 475 511 442 511 q 555 547 519 511 q 591 629 591 583 q 516 702 591 702 m 414 387 q 315 338 359 387 q 271 229 271 290 q 294 166 271 191 q 354 141 318 141 q 454 192 409 141 q 500 304 500 243 q 475 363 500 340 q 414 387 451 387 "},"R":{"x_min":-10,"x_max":1698,"ha":1279,"o":"m 1077 381 l 1220 41 q 1293 -24 1248 -24 l 1320 -23 l 1604 -23 q 1698 -86 1698 -23 q 1665 -159 1698 -133 q 1572 -185 1632 -185 l 1259 -185 q 1080 -62 1130 -185 l 884 409 l 793 185 q 700 -32 728 24 q 637 -136 673 -88 q 310 -312 507 -312 q 78 -222 167 -312 q -10 12 -10 -132 q 129 345 -10 201 q 318 468 205 421 q 543 516 431 516 q 629 491 596 516 q 662 429 662 467 q 626 362 662 387 q 548 341 606 347 q 330 280 412 329 q 221 171 261 237 q 181 32 181 105 q 220 -88 181 -44 q 326 -133 259 -133 q 469 -63 408 -133 q 602 185 530 6 l 837 764 l 767 764 q 674 828 674 764 q 706 900 674 875 q 798 926 739 926 l 1024 926 q 1153 915 1112 926 q 1232 873 1194 905 q 1311 688 1311 807 q 1246 495 1311 580 q 1077 381 1182 411 m 925 509 l 944 510 q 1060 540 1022 515 q 1134 670 1134 588 q 1043 764 1134 764 l 1028 764 l 925 509 "},"á":{"x_min":64,"x_max":687,"ha":649,"o":"m 526 146 l 601 146 q 687 87 687 146 q 656 23 687 46 q 572 0 625 0 l 485 0 q 406 45 427 0 q 307 0 355 0 l 230 0 q 109 53 155 0 q 64 192 64 106 q 153 425 64 322 q 357 528 243 528 q 484 467 444 528 q 573 519 518 519 q 622 499 602 519 q 643 452 643 480 q 632 407 643 433 l 624 388 l 526 146 m 280 146 l 297 146 q 371 191 353 146 l 419 307 q 429 345 429 330 q 410 377 429 364 q 367 391 392 391 q 270 333 317 391 q 224 215 224 276 q 280 146 224 146 m 550 660 l 467 594 q 415 571 437 571 q 383 584 397 571 q 369 617 369 598 q 371 631 369 624 l 377 644 l 402 712 q 466 757 419 757 l 505 757 q 574 703 574 757 q 550 660 574 678 "},"×":{"x_min":124,"x_max":743,"ha":648,"o":"m 520 404 l 592 281 l 597 273 q 604 250 604 262 q 582 202 604 224 q 535 180 561 180 q 481 207 498 180 l 411 327 l 229 197 q 185 180 204 180 q 143 199 162 180 q 124 243 124 219 q 148 288 124 271 l 349 430 l 277 551 q 266 584 266 571 q 288 631 266 610 q 336 653 310 653 q 387 626 371 653 l 457 508 l 637 634 q 681 653 662 653 q 723 633 704 653 q 743 589 743 613 q 721 546 743 562 l 520 404 "},"o":{"x_min":65,"x_max":603,"ha":575,"o":"m 377 528 q 539 465 476 528 q 603 307 603 403 q 569 163 603 234 q 483 48 536 91 q 410 10 448 21 q 305 0 373 0 q 155 26 194 0 q 65 210 65 88 q 157 433 65 339 q 377 528 250 528 m 361 384 q 269 334 310 384 q 228 224 228 284 q 316 146 228 146 q 395 177 367 146 q 442 297 442 230 q 419 360 442 336 q 361 384 397 384 "},"5":{"x_min":106,"x_max":764,"ha":648,"o":"m 466 681 l 415 556 q 465 563 444 563 q 609 500 554 563 q 664 336 664 438 q 569 86 664 187 q 336 -14 474 -14 q 170 43 234 -14 q 106 192 106 101 q 136 303 106 259 q 214 347 166 347 q 267 328 247 347 q 288 279 288 309 q 283 249 288 266 l 276 222 q 274 198 274 211 q 294 155 274 173 q 342 137 314 137 q 450 199 402 137 q 499 338 499 261 q 478 400 499 376 q 424 424 457 424 q 378 410 401 424 l 332 385 q 286 374 311 374 q 232 395 254 374 q 211 448 211 416 q 222 494 211 465 l 332 765 q 371 821 349 809 q 447 834 392 834 l 674 834 q 742 819 721 834 q 764 772 764 804 q 732 705 764 729 q 645 681 701 681 l 466 681 "},"õ":{"x_min":65,"x_max":603,"ha":575,"o":"m 377 528 q 539 465 476 528 q 603 307 603 403 q 569 163 603 234 q 483 48 536 91 q 410 10 448 21 q 305 0 373 0 q 155 26 194 0 q 65 210 65 88 q 157 433 65 339 q 377 528 250 528 m 361 384 q 269 334 310 384 q 228 224 228 284 q 316 146 228 146 q 395 177 367 146 q 442 297 442 230 q 419 360 442 336 q 361 384 397 384 m 256 683 l 283 717 q 357 756 313 756 q 416 733 381 756 l 437 719 q 453 713 446 713 q 470 721 461 713 l 486 737 q 520 752 500 752 q 565 735 547 752 q 583 695 584 718 q 563 648 581 669 l 524 604 q 461 574 497 574 q 394 602 429 574 q 368 618 374 618 q 345 605 359 618 q 286 579 318 579 q 249 594 264 579 q 234 633 234 610 q 256 683 234 655 "},"7":{"x_min":174,"x_max":741,"ha":648,"o":"m 539 681 l 325 681 q 237 743 237 681 q 268 810 237 786 q 355 834 299 834 l 624 834 q 741 749 741 834 q 717 681 741 719 l 348 69 l 338 51 q 243 -10 300 -10 q 193 9 213 -10 q 174 58 174 29 q 204 133 174 84 l 539 681 "},"K":{"x_min":148,"x_max":1418,"ha":1093,"o":"m 878 419 l 1021 30 q 1102 -20 1040 -20 l 1322 -20 q 1418 -86 1418 -20 q 1384 -158 1418 -132 q 1289 -185 1350 -185 l 1064 -185 q 938 -160 975 -185 q 872 -56 902 -135 l 692 428 l 552 83 q 436 -18 511 -18 q 382 2 404 -18 q 360 50 360 22 q 371 102 360 72 l 379 121 l 555 555 q 596 692 596 654 q 567 749 596 725 q 499 774 538 774 q 375 716 430 774 q 320 586 320 658 q 404 477 320 507 q 456 413 456 458 q 426 350 456 375 q 353 326 397 326 q 208 397 268 326 q 148 569 148 469 q 258 828 148 717 q 518 939 369 939 q 704 873 629 939 q 779 711 779 808 q 743 555 779 642 l 720 497 l 1076 870 q 1181 931 1133 931 q 1235 909 1213 931 q 1257 855 1257 888 q 1202 757 1257 815 l 878 419 "},",":{"x_min":68,"x_max":294,"ha":347,"o":"m 128 14 q 106 79 106 52 q 133 143 106 117 q 200 170 160 170 q 267 143 241 170 q 294 75 294 117 q 205 -60 294 12 q 106 -117 136 -117 q 68 -83 68 -117 q 85 -46 68 -70 l 99 -26 l 128 14 "},"d":{"x_min":65,"x_max":815,"ha":657,"o":"m 529 146 l 607 146 q 693 86 693 146 q 662 22 693 45 q 578 0 632 0 l 486 0 q 409 43 434 0 q 316 0 366 0 l 230 0 q 110 51 155 0 q 65 188 65 103 q 154 423 65 319 q 354 528 243 528 q 485 469 436 528 l 637 840 q 745 935 675 935 q 794 916 774 935 q 815 870 815 897 q 804 822 815 849 l 796 804 l 529 146 m 281 146 l 307 146 q 368 183 353 146 l 419 307 q 429 342 429 330 q 411 376 429 362 q 368 391 394 391 q 269 332 315 391 q 224 205 224 273 q 281 146 224 146 "},"¨":{"x_min":256,"x_max":698,"ha":695,"o":"m 606 761 q 671 735 644 761 q 698 670 698 708 q 671 604 698 631 q 606 578 644 578 q 540 604 567 578 q 514 670 514 631 q 540 735 514 708 q 606 761 567 761 m 347 761 q 413 735 386 761 q 440 670 440 708 q 413 604 440 631 q 347 578 386 578 q 282 604 309 578 q 256 670 256 631 q 282 735 256 708 q 347 761 309 761 "},"Ô":{"x_min":82,"x_max":985,"ha":916,"o":"m 210 463 l 176 463 q 82 527 82 463 q 114 599 82 573 q 207 625 147 625 l 302 625 l 321 650 q 745 939 532 939 q 917 877 850 939 q 985 720 985 816 q 857 511 985 585 q 603 463 772 463 l 400 463 q 300 140 300 273 q 339 21 300 66 q 443 -23 378 -23 q 622 82 533 -23 q 754 347 711 188 l 765 387 q 854 471 787 471 q 913 444 890 471 q 936 376 936 418 q 821 62 936 243 q 439 -190 663 -190 q 211 -96 300 -190 q 123 142 123 -3 q 210 463 123 280 m 505 625 l 638 625 q 806 716 806 625 q 783 761 806 743 q 728 780 761 780 q 616 738 675 780 q 505 625 556 697 m 793 1037 l 712 993 q 656 973 676 973 q 618 989 635 973 q 602 1029 602 1006 q 659 1100 602 1069 l 738 1142 q 805 1163 777 1163 q 841 1148 822 1163 q 855 1136 848 1141 l 910 1091 q 945 1030 945 1062 q 928 989 945 1005 q 887 974 911 974 q 833 1002 865 974 l 793 1037 "},"E":{"x_min":-139,"x_max":1350,"ha":1089,"o":"m 640 509 l 777 841 q 822 911 800 896 q 906 926 845 926 l 1256 926 q 1350 862 1350 926 q 1319 792 1350 820 q 1242 764 1288 764 l 1224 764 l 935 764 l 832 509 l 916 509 l 934 509 q 1011 443 1011 509 q 979 375 1011 403 q 903 347 948 347 l 885 347 l 766 347 l 615 -23 l 1084 -23 l 1102 -23 q 1178 -86 1178 -23 q 1147 -156 1178 -128 q 1070 -185 1116 -185 l 1052 -185 l 550 -185 l 541 -203 q 466 -352 493 -309 q 396 -435 440 -395 q 136 -539 283 -539 q -61 -467 16 -539 q -139 -286 -139 -396 q -105 -158 -139 -218 q -15 -65 -72 -98 q 184 -23 58 -23 l 424 -23 l 575 347 l 569 347 l 552 347 q 477 413 477 347 q 508 481 477 453 q 583 509 539 509 l 602 509 l 640 509 m 358 -185 l 179 -185 q 48 -279 48 -185 q 77 -343 48 -317 q 150 -370 106 -370 q 266 -320 210 -370 q 358 -185 322 -271 "},"Y":{"x_min":176,"x_max":1481,"ha":1247,"o":"m 1256 764 l 1012 162 l 1104 162 q 1198 95 1198 162 q 1165 25 1198 50 q 1072 0 1132 0 l 946 0 l 896 -124 q 724 -416 813 -331 q 501 -502 634 -502 q 291 -417 375 -502 q 207 -208 207 -333 q 256 -34 207 -113 q 397 96 306 45 q 718 160 513 160 l 826 162 l 849 218 q 769 201 813 201 q 610 259 673 201 q 547 408 547 318 q 577 544 547 455 l 592 584 l 606 624 q 622 695 622 666 q 593 750 622 727 q 525 774 565 774 q 406 714 460 774 q 353 583 353 654 q 371 519 353 542 q 436 478 389 496 q 485 416 485 459 q 455 351 485 377 q 383 326 426 326 q 236 397 297 326 q 176 571 176 469 q 287 828 176 718 q 547 939 398 939 q 732 871 659 939 q 806 702 806 804 q 789 607 806 653 l 762 535 q 738 439 738 468 q 761 385 738 407 q 818 363 785 363 q 902 397 868 363 q 971 518 936 432 l 1102 841 q 1148 907 1121 888 q 1226 926 1176 926 l 1386 926 q 1481 862 1481 926 q 1447 789 1481 815 q 1355 764 1414 764 l 1256 764 m 760 0 q 541 -27 617 0 q 430 -99 470 -52 q 390 -203 390 -146 q 424 -293 390 -256 q 510 -330 459 -330 q 621 -275 571 -330 q 720 -97 671 -220 l 760 0 "},"\"":{"x_min":277,"x_max":770,"ha":656,"o":"m 499 781 l 431 621 l 415 584 q 340 519 387 519 q 295 537 314 519 q 277 583 277 556 q 280 609 277 596 l 284 627 l 331 848 q 366 910 339 886 q 427 935 393 935 q 490 910 464 935 q 516 850 516 886 q 499 781 516 821 m 753 781 l 685 621 l 669 584 q 594 519 641 519 q 549 537 568 519 q 531 583 531 556 q 534 609 531 596 l 538 627 l 585 848 q 620 910 594 886 q 681 935 647 935 q 744 910 718 935 q 770 850 770 886 q 753 781 770 820 "},"‹":{"x_min":139,"x_max":357,"ha":403,"o":"m 274 289 l 310 192 q 321 148 321 164 q 299 98 321 120 q 251 76 277 76 q 201 115 216 76 l 197 127 l 160 225 l 147 257 q 139 297 139 280 q 167 362 139 322 l 224 441 q 300 496 264 496 q 340 479 323 496 q 357 438 357 462 q 327 365 357 409 l 274 289 "},"˙":{"x_min":385,"x_max":569,"ha":695,"o":"m 476 761 q 542 735 515 761 q 569 670 569 708 q 542 604 569 631 q 476 578 515 578 q 411 604 438 578 q 385 670 385 631 q 411 735 385 708 q 476 761 438 761 "},"ê":{"x_min":64,"x_max":590,"ha":552,"o":"m 226 199 q 303 146 226 146 l 504 146 q 590 86 590 146 q 559 22 590 45 q 475 0 529 0 l 283 0 q 120 52 176 0 q 64 207 64 105 q 152 433 64 338 q 363 528 241 528 q 506 481 452 528 q 560 359 560 435 q 485 224 560 268 q 362 199 444 199 l 226 199 m 259 322 l 333 322 q 404 353 406 322 q 357 390 401 390 q 259 322 294 390 m 407 639 l 326 595 q 267 575 289 575 q 230 592 246 575 q 215 632 215 610 q 272 702 215 671 l 352 744 q 419 765 391 765 q 455 750 436 765 q 469 738 461 744 l 524 693 q 559 631 559 664 q 542 591 559 607 q 501 576 525 576 q 447 604 479 576 l 407 639 "},"Ï":{"x_min":166,"x_max":808,"ha":817,"o":"m 600 162 l 714 162 q 808 96 808 162 q 775 25 808 50 q 682 0 742 0 l 559 0 q 446 28 485 0 q 408 112 408 57 q 435 220 408 151 l 571 555 q 613 695 613 657 q 585 749 613 725 q 521 774 557 774 q 398 715 453 774 q 343 584 343 656 q 361 519 343 542 q 430 476 380 496 q 475 416 475 458 q 445 351 475 376 q 371 326 415 326 q 226 398 286 326 q 166 571 166 470 q 277 828 166 718 q 536 939 388 939 q 721 873 647 939 q 796 711 796 808 q 760 555 796 642 l 600 162 m 694 1159 q 760 1133 733 1159 q 787 1068 787 1106 q 760 1002 787 1029 q 694 976 733 976 q 629 1002 656 976 q 603 1068 603 1029 q 629 1133 603 1106 q 694 1159 656 1159 m 464 1159 q 529 1133 502 1159 q 556 1068 556 1106 q 529 1002 556 1029 q 464 976 502 976 q 398 1002 425 976 q 372 1068 372 1029 q 398 1133 372 1106 q 464 1159 425 1159 "},"„":{"x_min":69.953125,"x_max":486,"ha":541,"o":"m 125 2 q 104 60 104 35 q 128 118 104 94 q 188 142 153 142 q 248 117 224 142 q 273 57 273 93 q 192 -66 273 0 q 104 -117 131 -117 q 80 -107 91 -117 q 70 -87 69 -98 q 85 -53 70 -73 l 98 -34 l 125 2 m 338 2 q 317 60 317 35 q 341 118 317 94 q 401 142 366 142 q 461 117 437 142 q 486 57 486 93 q 406 -66 486 0 q 317 -117 344 -117 q 293 -107 304 -117 q 283 -87 282 -98 q 298 -53 283 -73 l 311 -34 l 338 2 "},"Â":{"x_min":-10,"x_max":1498,"ha":1450,"o":"m 1093 347 l 906 347 l 681 -41 q 304 -317 522 -317 q 80 -221 171 -317 q -10 16 -10 -125 q 59 238 -10 131 q 250 415 129 345 q 450 487 340 466 q 743 509 560 509 l 793 509 l 847 607 q 1120 881 958 813 q 1391 926 1224 926 q 1458 906 1434 926 q 1483 854 1483 887 q 1474 817 1483 838 l 1468 801 l 1352 509 l 1403 509 l 1421 509 q 1498 443 1498 509 q 1466 375 1498 403 q 1390 347 1435 347 l 1372 347 l 1286 347 l 1211 162 l 1321 162 l 1339 162 q 1415 96 1415 162 q 1383 28 1415 56 q 1308 0 1352 0 l 1289 0 l 1144 0 q 1049 30 1086 0 q 1013 108 1013 60 q 1040 214 1013 145 l 1093 347 m 1160 509 l 1258 750 q 1137 704 1186 745 q 1024 555 1087 663 l 996 509 l 1160 509 m 700 347 l 642 347 q 335 275 449 347 q 220 160 263 229 q 177 20 177 91 q 218 -89 177 -43 q 318 -135 259 -135 q 499 0 420 -135 l 700 347 m 1338 1037 l 1257 993 q 1201 973 1220 973 q 1162 989 1179 973 q 1146 1029 1146 1006 q 1203 1100 1146 1069 l 1283 1142 q 1350 1163 1322 1163 q 1386 1148 1367 1163 q 1400 1136 1393 1141 l 1455 1091 q 1490 1030 1490 1062 q 1473 989 1490 1005 q 1432 974 1456 974 q 1378 1002 1410 974 l 1338 1037 "},"Í":{"x_min":166,"x_max":808,"ha":817,"o":"m 600 162 l 714 162 q 808 96 808 162 q 775 25 808 50 q 682 0 742 0 l 559 0 q 446 28 485 0 q 408 112 408 57 q 435 220 408 151 l 571 555 q 613 695 613 657 q 585 749 613 725 q 521 774 557 774 q 398 715 453 774 q 343 584 343 656 q 361 519 343 542 q 430 476 380 496 q 475 416 475 458 q 445 351 475 376 q 371 326 415 326 q 226 398 286 326 q 166 571 166 470 q 277 828 166 718 q 536 939 388 939 q 721 873 647 939 q 796 711 796 808 q 760 555 796 642 l 600 162 m 690 1068 l 607 1002 q 555 979 577 979 q 523 992 537 979 q 509 1025 509 1006 q 511 1039 509 1032 l 517 1052 l 543 1120 q 606 1165 560 1165 l 645 1165 q 714 1111 714 1165 q 690 1068 714 1086 "},"´":{"x_min":392,"x_max":597,"ha":695,"o":"m 573 660 l 490 594 q 438 571 460 571 q 406 584 420 571 q 392 617 392 598 q 394 631 392 624 l 400 644 l 425 712 q 489 757 442 757 l 528 757 q 597 703 597 757 q 573 660 597 678 "},"ì":{"x_min":64,"x_max":414,"ha":376,"o":"m 252 146 l 328 146 q 414 86 414 146 q 383 22 414 45 q 299 0 353 0 l 191 0 q 98 24 132 0 q 64 90 64 48 q 78 147 64 113 l 190 423 l 197 442 q 298 519 228 519 q 347 499 326 519 q 368 454 368 480 q 349 387 368 432 l 252 146 m 331 717 l 359 652 q 368 616 368 633 q 354 583 368 597 q 321 570 340 570 q 276 587 299 570 l 195 647 q 157 705 157 675 q 172 743 157 728 q 212 759 188 759 l 262 759 q 331 717 312 759 "},"±":{"x_min":17,"x_max":773,"ha":648,"o":"m 421 579 l 470 699 q 565 778 503 778 q 613 761 594 778 q 633 720 633 744 q 618 670 633 704 l 581 579 l 687 579 q 773 522 773 579 q 742 462 773 484 q 659 440 712 440 l 524 440 l 474 318 q 380 240 442 240 q 331 257 351 240 q 313 297 311 274 q 327 348 313 316 l 364 440 l 257 440 q 172 496 172 440 q 202 556 172 534 q 286 579 232 579 l 421 579 m 130 195 l 533 195 q 619 138 619 195 q 588 78 619 100 q 504 56 558 56 l 102 56 q 17 112 17 56 q 47 172 17 150 q 130 195 78 195 "},"Ú":{"x_min":157,"x_max":1451,"ha":1186,"o":"m 1235 764 l 1019 231 q 888 35 964 96 q 702 -26 813 -26 q 520 38 594 -26 q 447 197 447 103 q 491 376 447 267 l 563 555 q 605 693 605 657 q 576 750 605 727 q 507 774 548 774 q 385 715 440 774 q 331 586 331 656 q 350 520 331 544 q 416 478 369 496 q 467 414 467 458 q 437 351 467 376 q 365 326 408 326 q 217 397 278 326 q 157 570 157 468 q 267 828 157 718 q 527 939 378 939 q 714 872 640 939 q 789 706 789 806 q 752 554 789 642 l 649 300 q 627 212 627 245 q 649 157 627 178 q 709 136 672 136 q 786 167 755 136 q 850 282 817 199 l 1074 832 q 1123 909 1097 892 q 1210 926 1148 926 l 1357 926 q 1451 862 1451 926 q 1418 789 1451 814 q 1325 764 1385 764 l 1235 764 m 1060 1068 l 978 1002 q 926 979 948 979 q 893 992 907 979 q 879 1025 879 1006 q 881 1039 879 1032 l 887 1052 l 912 1120 q 976 1165 929 1165 l 1015 1165 q 1084 1111 1084 1165 q 1060 1068 1084 1086 "},"|":{"x_min":262,"x_max":434,"ha":695,"o":"m 262 926 l 434 926 l 434 -231 l 262 -231 l 262 926 "},"§":{"x_min":12,"x_max":823,"ha":787,"o":"m 472 113 q 490 13 490 55 q 428 -126 490 -67 q 281 -185 366 -185 l 101 -185 q 12 -123 12 -185 q 43 -54 12 -78 q 131 -30 74 -30 l 269 -30 q 313 -15 296 -30 q 330 21 330 -1 q 321 56 330 37 l 200 338 l 190 359 q 165 468 165 416 q 222 597 165 543 q 359 651 280 651 l 406 651 q 378 761 378 713 q 434 894 378 840 q 572 949 490 949 l 729 949 q 801 934 780 949 q 823 884 823 919 q 790 816 823 841 q 702 791 758 791 l 614 791 l 597 790 q 542 752 542 790 q 553 712 542 738 l 665 460 q 704 310 704 375 q 641 171 704 230 q 494 113 579 113 l 472 113 m 405 268 l 482 268 q 526 282 509 268 q 544 319 544 296 q 535 354 544 334 l 475 493 l 401 493 l 384 492 q 329 454 329 492 q 341 414 329 441 l 405 268 "},"Ý":{"x_min":176,"x_max":1481,"ha":1247,"o":"m 1256 764 l 1012 162 l 1104 162 q 1198 95 1198 162 q 1165 25 1198 50 q 1072 0 1132 0 l 946 0 l 896 -124 q 724 -416 813 -331 q 501 -502 634 -502 q 291 -417 375 -502 q 207 -208 207 -333 q 256 -34 207 -113 q 397 96 306 45 q 718 160 513 160 l 826 162 l 849 218 q 769 201 813 201 q 610 259 673 201 q 547 408 547 318 q 577 544 547 455 l 592 584 l 606 624 q 622 695 622 666 q 593 750 622 727 q 525 774 565 774 q 406 714 460 774 q 353 583 353 654 q 371 519 353 542 q 436 478 389 496 q 485 416 485 459 q 455 351 485 377 q 383 326 426 326 q 236 397 297 326 q 176 571 176 469 q 287 828 176 718 q 547 939 398 939 q 732 871 659 939 q 806 702 806 804 q 789 607 806 653 l 762 535 q 738 439 738 468 q 761 385 738 407 q 818 363 785 363 q 902 397 868 363 q 971 518 936 432 l 1102 841 q 1148 907 1121 888 q 1226 926 1176 926 l 1386 926 q 1481 862 1481 926 q 1447 789 1481 815 q 1355 764 1414 764 l 1256 764 m 760 0 q 541 -27 617 0 q 430 -99 470 -52 q 390 -203 390 -146 q 424 -293 390 -256 q 510 -330 459 -330 q 621 -275 571 -330 q 720 -97 671 -220 l 760 0 m 1091 1068 l 1008 1002 q 956 979 978 979 q 924 992 938 979 q 910 1025 910 1006 q 912 1039 910 1032 l 918 1052 l 943 1120 q 1007 1165 960 1165 l 1046 1165 q 1115 1111 1115 1165 q 1091 1068 1115 1086 "},"b":{"x_min":51,"x_max":631,"ha":603,"o":"m 400 519 q 454 528 430 528 q 582 469 533 528 q 631 317 631 410 q 491 35 631 136 q 389 0 442 0 l 324 0 q 210 48 257 0 q 120 0 181 0 q 71 18 91 0 q 51 65 51 37 q 61 111 51 85 l 69 130 l 353 831 l 360 850 q 459 926 392 926 q 510 907 489 926 q 531 861 531 888 q 520 814 531 840 l 512 795 l 400 519 m 265 186 q 344 143 299 143 q 399 161 377 143 q 454 235 431 186 q 478 324 478 285 q 460 374 478 355 q 414 394 442 394 q 310 298 349 394 l 265 186 "},"q":{"x_min":65,"x_max":582,"ha":572,"o":"m 333 -324 l 407 -324 q 494 -385 494 -324 q 463 -449 494 -426 q 378 -472 433 -472 l 252 -472 q 178 -448 206 -472 q 150 -388 150 -425 q 168 -314 150 -361 l 308 29 q 223 0 271 0 q 110 51 155 0 q 65 180 65 103 q 97 327 65 252 q 179 450 129 402 q 371 528 261 528 q 523 474 464 528 q 582 336 582 421 q 555 225 582 289 l 333 -324 m 369 178 l 416 294 q 424 331 424 313 q 405 366 424 352 q 359 380 386 380 q 271 327 313 380 q 230 215 230 274 q 300 149 230 149 q 343 158 321 149 q 369 178 364 167 "},"Ö":{"x_min":82,"x_max":1030,"ha":916,"o":"m 210 463 l 176 463 q 82 527 82 463 q 114 599 82 573 q 207 625 147 625 l 302 625 l 321 650 q 745 939 532 939 q 917 877 850 939 q 985 720 985 816 q 857 511 985 585 q 603 463 772 463 l 400 463 q 300 140 300 273 q 339 21 300 66 q 443 -23 378 -23 q 622 82 533 -23 q 754 347 711 188 l 765 387 q 854 471 787 471 q 913 444 890 471 q 936 376 936 418 q 821 62 936 243 q 439 -190 663 -190 q 211 -96 300 -190 q 123 142 123 -3 q 210 463 123 280 m 505 625 l 638 625 q 806 716 806 625 q 783 761 806 743 q 728 780 761 780 q 616 738 675 780 q 505 625 556 697 m 937 1159 q 1003 1133 976 1159 q 1030 1068 1030 1106 q 1003 1002 1030 1029 q 937 976 976 976 q 872 1002 899 976 q 846 1068 846 1029 q 872 1133 846 1106 q 937 1159 899 1159 m 662 1159 q 727 1133 700 1159 q 754 1068 754 1106 q 727 1002 754 1029 q 662 976 700 976 q 596 1002 623 976 q 570 1068 570 1029 q 596 1133 570 1106 q 662 1159 623 1159 "},"z":{"x_min":51,"x_max":574,"ha":542,"o":"m 316 146 l 487 146 q 573 86 573 146 q 542 22 573 45 q 458 0 512 0 l 142 0 q 75 20 100 0 q 51 77 51 41 q 96 156 51 112 l 318 369 l 242 367 l 225 367 q 152 428 152 367 q 181 492 152 466 q 252 519 210 519 l 269 519 l 480 519 q 574 438 574 519 q 531 354 574 396 l 316 146 "},"™":{"x_min":134,"x_max":1306,"ha":1129,"o":"m 731 780 l 601 485 q 527 335 553 375 q 460 266 501 296 q 321 224 399 224 q 186 272 238 224 q 134 398 134 320 q 228 589 134 508 q 451 670 322 670 q 521 622 521 670 q 451 571 521 577 q 305 522 357 563 q 253 416 253 480 q 335 334 253 334 q 412 368 379 334 q 484 490 444 403 l 613 780 l 543 780 q 486 838 486 780 q 506 902 486 879 q 564 926 527 926 l 817 926 l 828 926 q 875 867 875 926 q 853 803 875 826 q 796 780 832 780 l 731 780 m 1155 499 l 1214 499 q 1271 460 1271 499 q 1250 415 1271 431 q 1193 399 1229 399 l 1119 399 q 1032 466 1032 399 q 1048 525 1032 487 l 1137 734 l 1079 672 q 1024 642 1051 642 q 980 685 990 642 l 971 719 l 863 452 q 791 390 837 390 q 756 402 770 390 q 743 432 743 414 q 749 463 743 446 l 755 475 l 919 877 q 979 931 941 931 q 1039 867 1021 931 l 1062 786 l 1170 891 q 1246 931 1211 931 q 1289 916 1272 931 q 1306 880 1306 901 q 1299 851 1306 867 l 1291 830 l 1155 499 "},"ã":{"x_min":64,"x_max":687,"ha":649,"o":"m 526 146 l 601 146 q 687 87 687 146 q 656 23 687 46 q 572 0 625 0 l 485 0 q 406 45 427 0 q 307 0 355 0 l 230 0 q 109 53 155 0 q 64 192 64 106 q 153 425 64 322 q 357 528 243 528 q 484 467 444 528 q 573 519 518 519 q 622 499 602 519 q 643 452 643 480 q 632 407 643 433 l 624 388 l 526 146 m 280 146 l 297 146 q 371 191 353 146 l 419 307 q 429 345 429 330 q 410 377 429 364 q 367 391 392 391 q 270 333 317 391 q 224 215 224 276 q 280 146 224 146 m 294 683 l 321 717 q 395 756 351 756 q 454 733 419 756 l 475 719 q 491 713 484 713 q 508 721 499 713 l 524 737 q 558 752 538 752 q 603 735 585 752 q 621 695 622 718 q 601 648 619 669 l 562 604 q 499 574 535 574 q 432 602 467 574 q 406 618 412 618 q 383 605 397 618 q 324 579 356 579 q 287 594 302 579 q 272 633 272 610 q 294 683 272 655 "},"æ":{"x_min":64,"x_max":905,"ha":866,"o":"m 544 201 q 616 146 550 146 l 818 146 q 905 86 905 146 q 874 22 905 45 q 790 0 844 0 l 576 0 q 440 50 497 0 q 255 -10 361 -10 q 118 37 172 -10 q 64 156 64 84 q 118 281 64 238 q 275 325 172 325 l 402 325 q 331 373 395 373 l 250 373 q 171 431 171 373 q 199 495 171 472 q 278 519 227 519 l 375 519 q 513 459 457 519 q 687 528 590 528 q 824 480 772 528 q 877 356 877 433 q 827 242 877 284 q 693 201 777 201 l 544 201 m 579 325 l 660 325 q 722 354 722 325 q 675 390 722 390 q 579 325 611 390 m 380 201 l 297 201 q 222 163 222 201 q 276 126 222 126 q 381 169 330 126 q 380 201 380 195 "},"®":{"x_min":149,"x_max":1103,"ha":1013,"o":"m 693 466 l 757 314 q 794 287 769 287 l 800 287 q 848 249 848 287 q 784 199 848 199 l 769 199 q 680 260 705 199 l 594 466 l 506 245 q 445 195 485 195 q 415 206 428 195 q 403 233 403 217 q 409 259 403 245 l 412 268 l 563 642 l 540 642 q 490 680 490 642 q 555 731 490 731 l 660 731 q 800 613 800 731 q 769 521 800 562 q 693 466 739 480 m 623 537 q 704 604 704 541 q 666 642 704 642 l 623 537 m 704 935 q 990 824 877 935 q 1103 543 1103 713 q 1044 288 1103 415 q 890 86 985 162 q 761 18 828 36 q 575 0 694 0 q 402 8 452 0 q 309 47 352 17 q 192 185 235 98 q 149 372 149 273 q 186 565 149 467 q 289 741 223 663 q 704 935 454 935 m 689 854 q 352 693 486 854 q 239 390 239 557 q 273 235 239 307 q 369 120 308 162 q 444 88 404 95 q 584 81 485 81 q 735 96 681 81 q 840 152 790 111 q 965 319 918 215 q 1013 530 1013 423 q 921 762 1013 670 q 689 854 830 854 "},"É":{"x_min":-139,"x_max":1350,"ha":1089,"o":"m 640 509 l 777 841 q 822 911 800 896 q 906 926 845 926 l 1256 926 q 1350 862 1350 926 q 1319 792 1350 820 q 1242 764 1288 764 l 1224 764 l 935 764 l 832 509 l 916 509 l 934 509 q 1011 443 1011 509 q 979 375 1011 403 q 903 347 948 347 l 885 347 l 766 347 l 615 -23 l 1084 -23 l 1102 -23 q 1178 -86 1178 -23 q 1147 -156 1178 -128 q 1070 -185 1116 -185 l 1052 -185 l 550 -185 l 541 -203 q 466 -352 493 -309 q 396 -435 440 -395 q 136 -539 283 -539 q -61 -467 16 -539 q -139 -286 -139 -396 q -105 -158 -139 -218 q -15 -65 -72 -98 q 184 -23 58 -23 l 424 -23 l 575 347 l 569 347 l 552 347 q 477 413 477 347 q 508 481 477 453 q 583 509 539 509 l 602 509 l 640 509 m 358 -185 l 179 -185 q 48 -279 48 -185 q 77 -343 48 -317 q 150 -370 106 -370 q 266 -320 210 -370 q 358 -185 322 -271 m 1179 1068 l 1095 1002 q 1044 979 1066 979 q 1012 992 1026 979 q 998 1025 998 1006 q 1000 1039 998 1032 l 1006 1052 l 1031 1120 q 1094 1165 1048 1165 l 1133 1165 q 1202 1111 1202 1165 q 1179 1068 1202 1086 "},"~":{"x_min":125.46875,"x_max":800.296875,"ha":926,"o":"m 219 781 l 125 843 q 135 866 132 858 q 220 996 177 960 q 334 1033 263 1033 q 478 996 380 1033 q 602 962 569 962 q 656 977 635 962 q 703 1035 677 992 l 800 978 q 703 838 752 879 q 581 797 654 797 q 442 833 544 797 q 323 868 349 868 q 267 850 288 868 q 219 781 246 833 "},"³":{"x_min":178,"x_max":581,"ha":418,"o":"m 470 640 q 534 526 534 598 q 476 382 534 440 q 335 325 419 325 q 222 361 266 325 q 178 457 178 398 q 200 531 178 501 q 255 562 222 562 q 288 549 274 562 q 302 519 302 536 q 298 497 302 509 l 295 488 q 291 463 291 471 q 338 423 291 423 q 396 453 371 423 q 421 522 421 483 q 371 584 421 568 q 334 625 334 595 q 348 661 334 644 l 356 669 l 418 737 l 331 737 q 275 775 275 737 q 294 817 275 800 q 341 834 313 834 l 352 834 l 512 834 q 581 783 581 834 q 563 739 581 758 l 470 640 "},"¡":{"x_min":13,"x_max":430,"ha":402,"o":"m 335 528 q 402 500 374 528 q 430 433 430 472 q 402 366 430 394 q 335 339 374 339 q 268 366 296 339 q 241 433 241 394 q 268 500 241 472 q 335 528 296 528 m 29 -206 l 178 195 q 220 275 199 252 q 269 299 240 299 q 314 280 295 299 q 333 234 333 261 q 325 189 333 216 l 197 -273 q 101 -360 173 -360 q 38 -335 64 -360 q 13 -275 13 -311 q 29 -206 13 -252 "},"[":{"x_min":102,"x_max":872,"ha":632,"o":"m 644 806 l 328 -18 l 431 -18 q 507 -33 484 -18 q 531 -85 531 -49 q 400 -185 531 -185 l 182 -185 q 102 -123 102 -185 q 120 -54 102 -103 l 482 878 q 529 952 503 931 q 599 973 554 973 l 781 973 l 811 973 q 854 955 837 973 q 872 911 872 937 q 834 832 872 865 q 720 806 804 806 l 644 806 "},"L":{"x_min":-130,"x_max":1221,"ha":1045,"o":"m 828 477 l 624 -23 l 1094 -23 q 1189 -88 1189 -23 q 1155 -159 1189 -134 q 1063 -185 1122 -185 l 558 -185 l 550 -203 q 476 -352 503 -309 q 405 -435 448 -395 q 144 -539 292 -539 q -52 -467 25 -539 q -130 -286 -130 -396 q -96 -158 -130 -218 q -6 -65 -63 -98 q 194 -23 67 -23 l 434 -23 l 636 477 l 555 477 l 537 477 q 461 544 461 477 q 494 613 461 588 q 586 639 527 639 l 702 639 l 733 715 q 1004 935 822 935 q 1159 876 1097 935 q 1221 729 1221 817 q 1131 547 1221 617 q 899 477 1042 477 l 828 477 m 893 639 l 925 639 q 1011 664 975 639 q 1048 726 1048 689 q 997 780 1048 780 q 912 685 951 780 l 893 639 m 367 -185 l 189 -185 q 57 -279 57 -185 q 86 -343 57 -317 q 159 -370 115 -370 q 275 -320 219 -370 q 367 -185 331 -270 "}," ":{"x_min":0,"x_max":0,"ha":347},"∑":{"x_min":30,"x_max":871,"ha":926,"o":"m 857 1042 l 857 697 l 703 697 l 685 882 l 223 882 l 569 371 l 223 -187 l 699 -187 l 709 -3 l 871 -3 l 871 -347 l 30 -347 l 30 -170 l 368 371 l 30 865 l 30 1042 l 857 1042 "},"%":{"x_min":206,"x_max":968,"ha":942,"o":"m 455 876 q 551 839 516 876 q 587 739 587 802 q 553 590 587 665 q 468 475 519 514 q 340 433 415 433 q 242 467 278 433 q 206 563 206 502 q 281 775 206 672 q 455 876 356 876 m 447 781 q 364 708 410 783 q 318 571 318 633 q 350 531 318 531 q 426 585 391 531 q 478 741 478 666 q 447 781 478 778 m 356 39 l 746 830 l 750 836 q 795 868 766 868 q 832 834 832 868 q 822 803 832 822 l 432 13 q 383 -25 413 -25 q 347 8 347 -25 q 356 39 347 20 m 836 437 q 932 400 897 437 q 968 299 968 363 q 934 150 968 225 q 849 35 900 75 q 721 -7 796 -7 q 623 28 659 -7 q 587 123 587 63 q 662 336 587 233 q 836 437 736 437 m 828 342 q 745 269 791 344 q 699 131 699 194 q 731 91 699 91 q 807 146 772 91 q 859 302 859 227 q 828 342 859 339 "},"P":{"x_min":-10,"x_max":1308,"ha":1131,"o":"m 902 463 l 790 185 q 660 -99 705 -21 q 544 -231 614 -177 q 308 -312 442 -312 q 78 -222 166 -312 q -10 10 -10 -132 q 129 344 -10 201 q 318 468 205 421 q 543 516 431 516 q 629 491 596 516 q 662 428 662 467 q 626 362 662 387 q 548 341 606 347 q 330 280 414 329 q 221 171 261 238 q 181 31 181 105 q 220 -88 181 -44 q 324 -133 259 -133 q 468 -63 407 -133 q 601 185 528 6 l 836 764 l 763 764 q 669 829 669 764 q 702 900 669 875 q 794 926 735 926 l 1053 926 q 1245 876 1183 926 q 1308 725 1308 827 q 1211 520 1308 600 q 995 463 1141 463 l 902 463 m 968 625 l 1023 625 q 1132 713 1132 625 q 1070 764 1132 764 l 1024 764 l 968 625 "},"∏":{"x_min":55,"x_max":958,"ha":1013,"o":"m 55 1042 l 958 1042 l 958 882 l 842 882 l 842 -187 l 958 -187 l 958 -347 l 560 -347 l 560 -187 l 670 -187 l 670 882 l 342 882 l 342 -187 l 452 -187 l 452 -347 l 55 -347 l 55 -187 l 170 -187 l 170 882 l 55 882 l 55 1042 "},"À":{"x_min":-10,"x_max":1498,"ha":1450,"o":"m 1093 347 l 906 347 l 681 -41 q 304 -317 522 -317 q 80 -221 171 -317 q -10 16 -10 -125 q 59 238 -10 131 q 250 415 129 345 q 450 487 340 466 q 743 509 560 509 l 793 509 l 847 607 q 1120 881 958 813 q 1391 926 1224 926 q 1458 906 1434 926 q 1483 854 1483 887 q 1474 817 1483 838 l 1468 801 l 1352 509 l 1403 509 l 1421 509 q 1498 443 1498 509 q 1466 375 1498 403 q 1390 347 1435 347 l 1372 347 l 1286 347 l 1211 162 l 1321 162 l 1339 162 q 1415 96 1415 162 q 1383 28 1415 56 q 1308 0 1352 0 l 1289 0 l 1144 0 q 1049 30 1086 0 q 1013 108 1013 60 q 1040 214 1013 145 l 1093 347 m 1160 509 l 1258 750 q 1137 704 1186 745 q 1024 555 1087 663 l 996 509 l 1160 509 m 700 347 l 642 347 q 335 275 449 347 q 220 160 263 229 q 177 20 177 91 q 218 -89 177 -43 q 318 -135 259 -135 q 499 0 420 -135 l 700 347 m 1376 1125 l 1405 1060 q 1414 1024 1414 1040 q 1400 991 1414 1005 q 1367 978 1386 978 q 1321 995 1345 978 l 1240 1055 q 1202 1113 1202 1084 q 1218 1151 1202 1136 q 1258 1167 1234 1167 l 1308 1167 q 1376 1125 1359 1167 "},"_":{"x_min":0,"x_max":695,"ha":695,"o":"m 0 -67 l 695 -67 l 695 -221 l 0 -221 l 0 -67 "},"ñ":{"x_min":50,"x_max":734,"ha":695,"o":"m 566 146 l 647 146 q 734 86 734 146 q 703 22 734 45 q 619 0 672 0 l 477 0 q 408 25 436 0 q 380 88 380 50 q 398 157 380 111 l 457 305 q 468 342 467 328 q 454 370 468 358 q 419 382 440 382 q 306 276 349 382 l 226 79 q 119 -10 190 -10 q 70 7 90 -10 q 50 51 50 25 q 60 96 50 70 l 68 114 l 205 453 q 295 519 231 519 q 370 472 347 519 q 508 528 442 528 q 613 491 572 528 q 655 397 655 454 q 640 329 655 366 l 566 146 m 316 683 l 343 717 q 417 756 373 756 q 476 733 441 756 l 497 719 q 513 713 506 713 q 530 721 521 713 l 546 737 q 580 752 560 752 q 625 735 607 752 q 643 695 644 718 q 623 648 641 669 l 584 604 q 521 574 557 574 q 454 602 489 574 q 428 618 434 618 q 405 605 419 618 q 346 579 378 579 q 309 594 324 579 q 294 633 294 610 q 316 683 294 655 "},"+":{"x_min":134,"x_max":736,"ha":648,"o":"m 383 486 l 446 639 q 540 718 478 718 q 588 701 569 718 q 608 660 608 684 q 594 610 608 643 l 543 486 l 650 486 q 736 429 736 486 q 705 369 736 391 q 621 347 675 347 l 486 347 l 424 193 q 329 116 391 116 q 281 132 300 116 q 262 172 262 148 q 275 223 262 189 l 326 347 l 219 347 q 134 403 134 347 q 164 463 134 441 q 248 486 195 486 l 383 486 "},"‚":{"x_min":69.953125,"x_max":273,"ha":296,"o":"m 124 2 q 104 60 104 35 q 128 118 104 94 q 188 142 153 142 q 248 117 224 142 q 273 57 273 93 q 192 -66 273 0 q 104 -117 131 -117 q 80 -107 91 -117 q 70 -87 69 -98 q 85 -53 70 -73 l 98 -34 l 124 2 "},"½":{"x_min":257,"x_max":1084,"ha":1084,"o":"m 400 736 l 377 736 q 320 775 320 736 q 340 818 320 802 q 396 834 360 834 l 479 834 q 533 792 533 834 q 526 764 533 780 l 373 388 q 302 328 349 328 q 257 370 257 328 q 263 397 257 382 l 267 408 l 400 736 m 407 28 l 806 834 q 860 868 823 868 q 896 840 897 868 q 887 814 895 829 l 489 9 q 434 -24 472 -24 q 399 3 399 -24 q 407 28 399 10 m 872 146 l 986 146 q 1043 88 1043 146 q 1022 23 1043 46 q 966 0 1002 0 l 761 0 q 702 48 702 0 q 724 95 702 72 l 952 326 q 969 363 969 344 q 954 394 969 381 q 920 408 940 408 q 875 374 875 408 q 884 348 875 363 q 893 324 893 334 q 877 294 893 306 q 839 283 862 283 q 784 309 807 283 q 762 373 762 335 q 809 469 762 430 q 928 508 857 508 q 1039 473 995 508 q 1084 385 1084 438 q 1039 293 1084 333 l 872 146 "},"Æ":{"x_min":56,"x_max":1934,"ha":1700,"o":"m 1518 764 l 1417 512 l 1501 512 q 1595 442 1595 512 q 1560 374 1595 400 q 1471 349 1526 349 l 1351 349 l 1199 -21 l 1669 -21 q 1762 -85 1762 -21 q 1728 -158 1762 -132 q 1636 -185 1695 -185 l 1161 -185 l 1135 -184 q 1037 -154 1073 -184 q 1001 -73 1001 -123 q 1015 -1 1001 -39 l 1029 31 l 1159 350 l 971 350 l 747 -38 q 369 -315 587 -315 q 147 -217 238 -315 q 56 18 56 -120 q 126 239 56 131 q 316 417 197 346 q 513 490 407 470 q 807 511 620 511 l 857 511 l 911 611 q 1100 836 990 755 q 1449 926 1222 926 l 1490 926 l 1838 926 q 1911 910 1889 926 q 1934 859 1934 895 q 1903 791 1934 819 q 1825 764 1872 764 l 1806 764 l 1518 764 m 1224 511 l 1322 751 q 1201 706 1247 745 q 1090 558 1154 667 l 1062 511 l 1224 511 m 764 350 l 708 350 q 537 329 624 350 q 400 277 450 308 q 285 163 327 231 q 243 24 243 94 q 284 -87 243 -41 q 386 -133 326 -133 q 519 -59 455 -133 q 565 2 552 -19 l 764 350 "},"Ë":{"x_min":-139,"x_max":1350,"ha":1089,"o":"m 640 509 l 777 841 q 822 911 800 896 q 906 926 845 926 l 1256 926 q 1350 862 1350 926 q 1319 792 1350 820 q 1242 764 1288 764 l 1224 764 l 935 764 l 832 509 l 916 509 l 934 509 q 1011 443 1011 509 q 979 375 1011 403 q 903 347 948 347 l 885 347 l 766 347 l 615 -23 l 1084 -23 l 1102 -23 q 1178 -86 1178 -23 q 1147 -156 1178 -128 q 1070 -185 1116 -185 l 1052 -185 l 550 -185 l 541 -203 q 466 -352 493 -309 q 396 -435 440 -395 q 136 -539 283 -539 q -61 -467 16 -539 q -139 -286 -139 -396 q -105 -158 -139 -218 q -15 -65 -72 -98 q 184 -23 58 -23 l 424 -23 l 575 347 l 569 347 l 552 347 q 477 413 477 347 q 508 481 477 453 q 583 509 539 509 l 602 509 l 640 509 m 358 -185 l 179 -185 q 48 -279 48 -185 q 77 -343 48 -317 q 150 -370 106 -370 q 266 -320 210 -370 q 358 -185 322 -271 m 1238 1159 q 1304 1133 1277 1159 q 1331 1068 1331 1106 q 1304 1002 1331 1029 q 1238 976 1277 976 q 1173 1002 1200 976 q 1147 1068 1147 1029 q 1173 1133 1147 1106 q 1238 1159 1200 1159 m 961 1159 q 1026 1133 999 1159 q 1053 1068 1053 1106 q 1026 1002 1053 1029 q 961 976 999 976 q 895 1002 922 976 q 869 1068 869 1029 q 895 1133 869 1106 q 961 1159 922 1159 "},"'":{"x_min":277,"x_max":516,"ha":402,"o":"m 499 781 l 431 621 l 415 584 q 340 519 387 519 q 295 537 314 519 q 277 583 277 556 q 280 609 277 596 l 284 627 l 331 848 q 366 910 339 886 q 427 935 393 935 q 490 910 464 935 q 516 850 516 886 q 499 781 516 821 "},"Š":{"x_min":79,"x_max":1048,"ha":927,"o":"m 658 463 l 720 384 l 756 340 q 861 68 861 212 q 768 -176 861 -71 q 438 -321 642 -321 q 179 -223 280 -321 q 79 25 79 -126 q 236 335 79 211 q 390 401 319 401 q 449 379 426 401 q 473 325 473 358 q 419 248 473 280 l 365 215 q 287 133 318 186 q 256 30 256 81 q 310 -102 256 -49 q 449 -155 365 -155 q 610 -85 542 -155 q 679 78 679 -15 q 651 186 679 138 q 531 338 623 235 q 439 463 467 409 l 256 463 q 163 527 163 463 q 195 599 163 574 q 288 625 228 625 l 404 625 q 527 847 417 759 q 788 935 636 935 q 975 871 903 935 q 1048 708 1048 808 q 933 503 1048 574 q 726 463 868 463 l 658 463 m 577 625 l 739 625 q 878 704 878 625 q 849 755 878 736 q 774 774 821 774 q 641 728 701 774 q 577 625 581 683 m 814 1098 l 895 1142 q 950 1162 929 1161 q 989 1145 972 1163 q 1006 1106 1006 1128 q 948 1035 1006 1066 l 869 993 q 802 972 829 972 q 765 987 784 972 q 752 999 760 993 l 697 1044 q 663 1105 663 1073 q 679 1146 663 1130 q 720 1162 696 1162 q 774 1133 742 1162 l 814 1098 "},"ª":{"x_min":111,"x_max":628,"ha":519,"o":"m 520 573 l 567 573 l 578 573 q 628 528 628 573 q 604 476 628 495 q 541 458 581 458 l 482 458 q 441 471 452 458 l 432 481 q 427 486 431 482 q 361 458 396 458 l 306 458 q 226 496 257 458 q 195 595 195 534 q 260 766 195 690 q 406 843 325 843 q 490 804 464 843 q 552 836 514 836 q 602 787 602 836 q 589 739 602 771 l 520 573 m 349 570 l 366 570 q 402 592 393 570 l 439 681 l 441 688 q 446 706 446 697 q 434 726 446 717 q 409 736 423 736 q 344 696 375 736 q 314 614 314 657 q 349 570 314 570 m 180 390 l 482 390 q 551 338 551 390 q 482 286 551 286 l 180 286 l 168 286 q 127 300 143 286 q 111 338 111 315 q 168 390 111 390 l 180 390 "},"Œ":{"x_min":147,"x_max":1586,"ha":1352,"o":"m 1174 764 l 1066 510 l 1154 510 l 1172 509 q 1249 448 1249 509 q 1121 351 1249 351 l 1003 351 l 853 -21 l 1320 -21 q 1418 -88 1418 -21 q 1384 -159 1418 -134 q 1291 -185 1351 -185 l 727 -185 l 688 -184 q 631 -139 631 -184 q 632 -123 631 -134 q 547 -174 588 -160 q 442 -188 507 -188 q 225 -113 303 -188 q 147 95 147 -38 q 212 400 147 234 q 383 702 277 567 q 765 941 573 941 q 913 902 852 941 q 996 796 974 863 l 1012 843 q 1054 911 1030 897 q 1146 926 1078 926 l 1485 926 l 1508 926 q 1586 867 1586 926 q 1547 786 1586 820 q 1460 764 1523 764 l 1174 764 m 749 783 q 539 638 658 783 q 392 386 452 532 q 332 135 332 240 q 368 22 332 66 q 463 -22 405 -22 q 608 44 532 -22 q 752 232 684 111 q 868 606 868 437 q 836 735 868 687 q 749 783 804 783 "},"˛":{"x_min":343,"x_max":628,"ha":695,"o":"m 546 0 l 537 -8 q 458 -117 458 -79 q 505 -161 458 -161 l 564 -161 q 628 -201 628 -161 q 605 -247 628 -231 q 545 -263 583 -263 l 451 -263 q 373 -229 403 -263 q 343 -143 343 -196 q 416 0 343 -82 l 546 0 "},"ð":{"x_min":65,"x_max":661,"ha":575,"o":"m 405 526 l 376 651 l 307 634 q 275 630 290 630 q 228 646 246 630 q 210 689 210 662 q 281 754 210 737 l 350 770 l 338 820 q 332 857 332 845 q 354 911 332 888 q 407 935 377 935 q 480 859 462 935 l 493 801 l 568 819 q 602 824 591 824 q 661 768 661 824 q 594 700 661 715 l 522 683 l 591 381 q 603 296 603 333 q 568 160 603 232 q 483 48 534 89 q 305 0 423 0 q 155 26 194 0 q 65 210 65 88 q 157 433 65 338 q 373 528 249 528 q 405 526 387 528 m 361 384 q 269 334 310 384 q 228 224 228 284 q 316 146 228 146 q 395 177 367 146 q 442 297 442 230 q 419 360 442 336 q 361 384 397 384 "},"T":{"x_min":-10,"x_max":1278,"ha":1036,"o":"m 1029 764 l 794 185 q 664 -100 709 -25 q 549 -231 619 -176 q 311 -312 445 -312 q 79 -222 168 -312 q -10 12 -10 -132 q 130 345 -10 202 q 319 469 205 422 q 543 516 432 516 q 629 491 596 516 q 662 429 662 467 q 626 362 662 387 q 548 341 607 347 q 330 280 412 329 q 221 171 261 237 q 181 31 181 105 q 221 -88 181 -44 q 329 -133 261 -133 q 472 -62 410 -133 q 604 185 533 8 l 839 764 l 707 764 q 614 830 614 764 q 647 900 614 875 q 739 926 680 926 l 1184 926 l 1202 926 l 1249 915 q 1278 859 1278 899 q 1244 789 1278 814 q 1152 764 1211 764 l 1029 764 "},"š":{"x_min":50,"x_max":536,"ha":485,"o":"m 289 332 l 276 301 q 191 234 246 234 q 142 253 164 234 q 120 297 120 272 q 139 361 120 321 l 229 544 q 312 611 263 611 q 358 593 339 611 q 377 552 377 576 q 372 526 377 546 q 370 499 370 511 q 401 412 370 457 l 440 358 q 500 200 500 276 q 436 57 500 114 q 277 0 372 0 l 135 0 q 50 58 50 0 q 80 122 50 99 q 164 146 110 146 l 242 146 q 338 214 338 146 q 320 274 338 240 l 289 332 m 343 774 l 424 818 q 483 838 461 838 q 520 820 504 838 q 536 780 536 803 q 477 711 536 742 l 398 669 q 331 648 358 648 q 295 663 314 648 q 281 675 287 670 l 226 720 q 192 781 192 749 q 208 822 192 806 q 249 838 225 838 q 303 809 271 838 l 343 774 "},"Þ":{"x_min":-10,"x_max":1193,"ha":1131,"o":"m 788 180 l 775 147 q 656 -103 703 -27 q 544 -232 610 -180 q 308 -312 442 -312 q 78 -222 166 -312 q -10 10 -10 -132 q 129 344 -10 202 q 318 468 204 421 q 543 516 433 516 q 629 491 596 516 q 662 427 662 467 q 635 367 662 387 q 548 341 609 347 q 330 280 414 329 q 221 171 261 238 q 181 31 181 105 q 220 -88 181 -44 q 324 -133 259 -133 q 468 -62 407 -133 q 601 185 529 7 l 863 833 q 978 935 904 935 q 1034 915 1012 935 q 1057 865 1057 895 q 1046 816 1057 843 l 1038 796 l 975 642 q 1193 442 1193 630 q 1096 237 1193 317 q 881 180 1027 180 l 788 180 m 853 342 l 909 342 q 1017 430 1017 342 q 955 481 1017 481 l 910 481 l 853 342 "},"j":{"x_min":-380,"x_max":527,"ha":408,"o":"m 264 -28 l 339 -28 q 425 -88 425 -28 q 394 -152 425 -129 q 309 -176 364 -176 l 204 -176 l 155 -272 l 136 -312 q -132 -500 42 -500 q -308 -435 -237 -500 q -380 -276 -380 -371 q -352 -166 -380 -219 q -278 -80 -324 -112 q -50 -28 -204 -28 l 90 -28 l 244 352 l 171 352 q 85 412 85 352 q 115 476 85 453 q 200 500 145 500 l 362 500 q 445 431 445 500 q 430 370 445 404 l 264 -28 m 30 -176 l -64 -176 q -220 -276 -220 -176 q -198 -329 -220 -308 q -141 -350 -176 -350 q -54 -311 -92 -350 q 30 -176 -15 -273 m 432 736 q 499 708 471 736 q 527 641 527 680 q 499 574 527 602 q 432 547 471 547 q 365 574 393 547 q 338 641 338 602 q 365 708 338 680 q 432 736 393 736 "},"1":{"x_min":231,"x_max":676,"ha":648,"o":"m 476 683 l 430 683 q 343 744 343 683 q 373 810 343 787 q 459 834 404 834 l 594 834 q 676 768 676 834 q 665 724 676 750 l 406 84 q 300 -10 367 -10 q 250 9 270 -10 q 231 54 231 28 q 241 101 231 74 l 248 119 l 476 683 "},"›":{"x_min":139,"x_max":357,"ha":403,"o":"m 221 282 l 185 379 q 175 423 175 407 q 196 473 175 451 q 245 496 218 496 q 294 456 279 496 l 298 444 l 336 346 l 348 314 q 357 274 357 291 q 328 209 357 249 l 271 130 q 195 76 232 76 q 155 92 172 76 q 139 133 139 109 q 159 192 139 162 l 169 206 l 221 282 "},"ı":{"x_min":64,"x_max":414,"ha":376,"o":"m 252 146 l 328 146 q 414 86 414 146 q 383 22 414 45 q 299 0 353 0 l 191 0 q 98 24 132 0 q 64 90 64 48 q 78 147 64 113 l 190 423 l 197 442 q 298 519 228 519 q 347 499 326 519 q 368 454 368 480 q 349 387 368 432 l 252 146 "},"ä":{"x_min":64,"x_max":687,"ha":649,"o":"m 526 146 l 601 146 q 687 87 687 146 q 656 23 687 46 q 572 0 625 0 l 485 0 q 406 45 427 0 q 307 0 355 0 l 230 0 q 109 53 155 0 q 64 192 64 106 q 153 425 64 322 q 357 528 243 528 q 484 467 444 528 q 573 519 518 519 q 622 499 602 519 q 643 452 643 480 q 632 407 643 433 l 624 388 l 526 146 m 280 146 l 297 146 q 371 191 353 146 l 419 307 q 429 345 429 330 q 410 377 429 364 q 367 391 392 391 q 270 333 317 391 q 224 215 224 276 q 280 146 224 146 m 583 761 q 648 735 621 761 q 675 670 675 708 q 648 604 675 631 q 583 578 621 578 q 517 604 544 578 q 491 670 491 631 q 517 735 491 708 q 583 761 544 761 m 324 761 q 390 735 363 761 q 417 670 417 708 q 390 604 417 631 q 324 578 363 578 q 259 604 286 578 q 233 670 233 631 q 259 735 233 708 q 324 761 286 761 "},"<":{"x_min":46,"x_max":648,"ha":695,"o":"m 648 848 l 648 678 l 227 472 l 648 264 l 648 96 l 46 400 l 46 544 l 648 848 "},"£":{"x_min":56,"x_max":743,"ha":648,"o":"m 421 439 l 510 439 q 598 376 598 439 q 566 310 598 334 q 480 287 535 287 l 387 287 q 303 146 360 206 l 503 146 q 589 86 589 146 q 558 22 589 45 q 474 0 528 0 l 175 0 q 80 14 104 0 q 56 69 56 28 q 99 143 56 104 q 212 287 183 217 l 202 287 q 132 348 132 287 q 163 414 132 390 q 249 439 194 439 l 259 439 l 260 452 q 263 507 263 493 l 264 562 q 333 764 264 686 q 515 843 403 843 q 680 784 617 843 q 743 631 743 726 q 710 510 743 558 q 627 463 677 463 q 573 484 596 463 q 551 535 551 505 q 563 589 551 553 q 573 628 573 615 q 557 671 573 654 q 516 688 541 688 q 449 652 474 688 q 425 557 425 617 q 422 453 425 508 l 421 439 "},"¹":{"x_min":257,"x_max":533,"ha":418,"o":"m 400 736 l 377 736 q 320 775 320 736 q 340 818 320 802 q 396 834 360 834 l 479 834 q 533 792 533 834 q 526 764 533 780 l 373 388 q 302 328 349 328 q 257 370 257 328 q 263 397 257 382 l 267 408 l 400 736 "},"t":{"x_min":69,"x_max":510,"ha":418,"o":"m 402 519 l 423 519 q 510 458 510 519 q 479 394 510 417 q 395 371 448 371 l 345 371 l 255 146 l 330 146 q 417 86 417 146 q 386 22 417 45 q 302 0 356 0 l 181 0 q 99 23 129 0 q 69 88 69 47 q 81 143 69 113 l 94 173 l 174 371 l 164 371 q 88 430 88 371 q 118 495 88 472 q 202 519 148 519 l 233 519 l 270 607 l 277 625 q 378 701 309 701 q 425 682 405 701 q 446 637 446 663 q 428 572 446 611 l 402 519 "},"¬":{"x_min":46,"x_max":648,"ha":695,"o":"m 476 0 l 476 210 l 46 210 l 46 370 l 648 370 l 648 0 l 476 0 "},"ù":{"x_min":64,"x_max":707,"ha":668,"o":"m 541 146 l 620 146 q 687 132 667 146 q 707 87 707 118 q 676 23 707 46 q 592 0 646 0 l 470 0 q 394 43 413 0 q 301 0 357 0 l 202 0 q 103 37 142 0 q 64 131 64 74 q 81 207 64 164 l 173 433 q 279 528 212 528 q 328 509 308 528 q 349 463 349 490 q 338 416 349 442 l 330 397 l 259 223 l 252 202 q 246 176 246 185 q 285 146 244 146 q 397 214 369 146 l 481 423 q 588 519 519 519 q 637 499 617 519 q 658 454 658 480 q 640 388 658 433 l 541 146 m 440 717 l 468 652 q 477 616 477 633 q 463 583 477 597 q 430 570 449 570 q 385 587 408 570 l 304 647 q 266 705 266 675 q 281 743 266 728 q 321 759 297 759 l 371 759 q 440 717 421 759 "},"W":{"x_min":134,"x_max":1882,"ha":1630,"o":"m 1680 764 l 1262 45 q 1149 -35 1216 -35 q 1070 -3 1098 -35 q 1043 86 1043 28 l 1060 573 l 813 45 q 706 -35 776 -35 q 626 -2 655 -35 q 597 86 597 29 l 583 555 q 561 722 583 679 q 479 766 540 766 q 370 707 424 766 q 316 590 316 649 q 346 510 316 541 q 426 480 376 480 q 453 481 440 480 q 469 482 466 482 q 552 413 552 482 q 505 337 552 367 q 387 307 458 307 q 205 382 277 307 q 134 572 134 457 q 248 824 134 713 q 506 935 362 935 q 698 857 638 935 q 757 609 757 779 l 758 555 l 762 319 l 1004 844 q 1128 935 1044 935 q 1204 906 1175 935 q 1234 831 1234 878 l 1233 824 l 1221 308 l 1526 834 l 1540 860 q 1655 926 1578 926 l 1787 926 q 1882 859 1882 926 q 1848 789 1882 814 q 1756 764 1815 764 l 1680 764 "},"ï":{"x_min":64,"x_max":509,"ha":376,"o":"m 252 146 l 328 146 q 414 86 414 146 q 383 22 414 45 q 299 0 353 0 l 191 0 q 98 24 132 0 q 64 90 64 48 q 78 147 64 113 l 190 423 l 197 442 q 298 519 228 519 q 347 499 326 519 q 368 454 368 480 q 349 387 368 432 l 252 146 m 426 761 q 484 735 460 761 q 509 670 509 708 q 484 604 509 631 q 426 578 460 578 q 368 604 392 578 q 344 670 344 631 q 368 735 344 708 q 426 761 392 761 m 221 761 q 279 735 255 761 q 304 670 304 708 q 279 604 304 631 q 221 578 255 578 q 163 604 187 578 q 139 670 139 631 q 163 735 139 708 q 221 761 187 761 "},">":{"x_min":46,"x_max":648,"ha":695,"o":"m 46 95 l 46 265 l 466 472 l 46 679 l 46 847 l 648 543 l 648 399 l 46 95 "},"v":{"x_min":71,"x_max":565,"ha":466,"o":"m 234 238 l 392 452 l 404 471 q 492 528 443 528 q 544 507 524 528 q 565 456 565 487 q 524 369 565 422 l 273 44 q 174 -10 231 -10 q 98 23 126 -10 q 71 115 71 57 q 71 135 71 127 l 95 406 q 125 490 100 461 q 191 519 150 519 q 256 453 256 519 q 253 421 256 444 l 234 238 "},"û":{"x_min":64,"x_max":707,"ha":668,"o":"m 541 146 l 620 146 q 687 132 667 146 q 707 87 707 118 q 676 23 707 46 q 592 0 646 0 l 470 0 q 394 43 413 0 q 301 0 357 0 l 202 0 q 103 37 142 0 q 64 131 64 74 q 81 207 64 164 l 173 433 q 279 528 212 528 q 328 509 308 528 q 349 463 349 490 q 338 416 349 442 l 330 397 l 259 223 l 252 202 q 246 176 246 185 q 285 146 244 146 q 397 214 369 146 l 481 423 q 588 519 519 519 q 637 499 617 519 q 658 454 658 480 q 640 388 658 433 l 541 146 m 464 639 l 383 595 q 324 575 346 575 q 287 592 303 575 q 272 632 272 610 q 329 702 272 671 l 409 744 q 476 765 448 765 q 512 750 493 765 q 526 738 518 744 l 581 693 q 616 631 616 664 q 599 591 616 607 q 558 576 582 576 q 504 604 536 576 l 464 639 "},"Ò":{"x_min":82,"x_max":985,"ha":916,"o":"m 210 463 l 176 463 q 82 527 82 463 q 114 599 82 573 q 207 625 147 625 l 302 625 l 321 650 q 745 939 532 939 q 917 877 850 939 q 985 720 985 816 q 857 511 985 585 q 603 463 772 463 l 400 463 q 300 140 300 273 q 339 21 300 66 q 443 -23 378 -23 q 622 82 533 -23 q 754 347 711 188 l 765 387 q 854 471 787 471 q 913 444 890 471 q 936 376 936 418 q 821 62 936 243 q 439 -190 663 -190 q 211 -96 300 -190 q 123 142 123 -3 q 210 463 123 280 m 505 625 l 638 625 q 806 716 806 625 q 783 761 806 743 q 728 780 761 780 q 616 738 675 780 q 505 625 556 697 m 786 1125 l 814 1060 q 823 1024 823 1041 q 809 991 823 1005 q 776 978 795 978 q 731 995 755 978 l 650 1055 q 612 1113 612 1083 q 627 1151 612 1136 q 667 1167 643 1167 l 717 1167 q 786 1125 767 1167 "},"&":{"x_min":74,"x_max":1080,"ha":1098,"o":"m 970 513 l 994 513 q 1080 452 1080 513 q 1050 387 1080 410 q 967 364 1021 364 l 909 364 l 784 59 q 403 -207 674 -207 q 164 -117 255 -207 q 74 118 74 -28 q 123 304 74 217 q 257 440 173 391 q 425 493 315 473 q 373 630 373 559 q 408 762 373 699 q 505 865 444 826 q 744 922 594 922 l 902 922 q 988 862 988 922 q 958 797 988 820 q 875 774 929 774 l 734 774 q 598 742 647 774 q 527 616 527 696 q 565 541 527 569 q 670 513 604 513 l 799 513 l 835 598 l 843 615 q 938 688 874 688 q 987 669 967 688 q 1008 623 1008 650 q 990 559 1008 602 l 970 513 m 738 364 l 556 364 q 373 338 437 364 q 270 253 310 312 q 230 125 230 193 q 282 -3 230 47 q 419 -54 335 -54 q 542 -14 485 -54 q 625 90 598 25 l 738 364 "},"˝":{"x_min":311,"x_max":735,"ha":695,"o":"m 489 664 l 404 597 q 354 574 375 574 q 324 586 337 574 q 311 616 311 599 q 313 628 311 622 l 319 643 l 345 712 q 405 755 361 755 l 445 755 q 511 705 511 755 q 489 664 511 681 m 712 664 l 627 597 q 577 574 598 574 q 547 586 560 574 q 534 616 534 599 q 536 628 534 623 l 542 643 l 568 712 q 628 755 584 755 l 668 755 q 735 705 735 755 q 712 664 735 681 "},"Ð":{"x_min":-139,"x_max":1320,"ha":1269,"o":"m 575 347 l 570 347 l 552 347 q 476 410 476 347 q 506 480 476 452 q 583 509 537 509 l 601 509 l 641 509 l 744 764 l 677 764 l 659 764 q 583 827 583 764 q 613 897 583 869 q 690 926 644 926 l 708 926 l 907 926 q 1213 831 1106 926 q 1320 557 1320 736 q 1239 220 1320 388 q 1028 -52 1159 52 q 838 -154 938 -123 q 592 -185 737 -185 l 550 -185 l 541 -203 q 467 -352 494 -309 q 396 -435 440 -395 q 135 -539 283 -539 q -61 -467 16 -539 q -139 -286 -139 -396 q -105 -158 -139 -218 q -15 -65 -72 -98 q 184 -23 58 -23 l 425 -23 l 575 347 m 766 347 l 615 -23 l 642 -23 q 995 163 853 -23 q 1103 357 1063 253 q 1143 550 1143 462 q 1087 707 1143 650 q 935 764 1031 764 l 832 509 l 915 509 l 933 509 q 1010 444 1010 509 q 979 375 1010 403 q 902 347 948 347 l 884 347 l 766 347 m 359 -185 l 179 -185 q 48 -278 48 -185 q 77 -343 48 -317 q 147 -370 106 -370 q 266 -321 210 -370 q 359 -185 322 -272 "},"I":{"x_min":166,"x_max":808,"ha":817,"o":"m 600 162 l 714 162 q 808 96 808 162 q 775 25 808 50 q 682 0 742 0 l 559 0 q 446 28 485 0 q 408 112 408 57 q 435 220 408 151 l 571 555 q 613 695 613 657 q 585 749 613 725 q 521 774 557 774 q 398 715 453 774 q 343 584 343 656 q 361 519 343 542 q 430 476 380 496 q 475 416 475 458 q 445 351 475 376 q 371 326 415 326 q 226 398 286 326 q 166 571 166 470 q 277 828 166 718 q 536 939 388 939 q 721 873 647 939 q 796 711 796 808 q 760 555 796 642 l 600 162 "},"ˉ":{"x_min":213,"x_max":555,"ha":528,"o":"m 290 780 l 478 780 l 491 780 q 555 723 555 780 q 537 680 555 696 q 491 665 519 665 l 478 665 l 290 665 l 277 665 q 230 680 248 665 q 213 722 213 696 q 230 765 213 749 q 277 780 248 780 l 290 780 "},"G":{"x_min":56,"x_max":1057,"ha":1046,"o":"m 862 162 l 962 162 q 1057 95 1057 162 q 1023 25 1057 50 q 931 0 990 0 l 795 0 l 745 -124 q 573 -416 663 -331 q 350 -502 484 -502 q 140 -418 224 -502 q 56 -209 56 -334 q 245 96 56 -10 q 564 160 361 160 l 672 162 l 695 219 q 590 201 643 201 q 422 273 486 201 q 358 463 358 345 l 265 463 l 247 463 q 172 527 172 463 q 202 596 172 568 q 278 625 233 625 l 296 625 l 394 625 q 581 855 468 772 q 820 939 694 939 q 989 877 924 939 q 1055 720 1055 816 q 933 511 1055 585 q 690 463 852 463 l 535 463 l 536 449 q 637 363 536 363 q 730 390 683 363 l 766 410 q 846 438 813 438 q 908 415 884 438 q 933 357 933 393 q 913 289 933 336 l 862 162 m 606 0 q 387 -27 463 0 q 276 -99 317 -52 q 236 -203 236 -146 q 270 -293 236 -256 q 356 -330 305 -330 q 467 -275 418 -330 q 567 -97 517 -220 l 606 0 m 585 625 l 716 625 q 885 716 885 625 q 862 761 885 743 q 807 780 840 780 q 695 738 754 780 q 585 625 636 697 "},"`":{"x_min":279,"x_max":490,"ha":695,"o":"m 453 717 l 481 652 q 490 616 490 633 q 476 583 490 597 q 443 570 462 570 q 398 587 421 570 l 317 647 q 279 705 279 675 q 294 743 279 728 q 334 759 310 759 l 384 759 q 453 717 434 759 "},"r":{"x_min":58,"x_max":601,"ha":567,"o":"m 233 370 l 210 312 q 129 236 179 236 q 78 254 98 236 q 58 300 58 272 q 72 353 58 315 l 149 543 q 228 612 177 612 q 289 564 278 612 l 295 543 q 307 523 299 527 q 347 519 315 519 l 505 519 q 595 456 595 519 q 482 370 595 370 l 474 363 q 367 202 367 259 q 429 146 367 146 l 514 146 q 601 87 601 146 q 570 22 601 45 q 486 0 540 0 l 353 0 q 242 46 285 0 q 199 168 199 93 q 222 260 199 215 q 303 370 245 304 l 233 370 "},"¿":{"x_min":-35,"x_max":487,"ha":575,"o":"m 392 528 q 459 500 431 528 q 487 433 487 472 q 459 366 487 394 q 392 339 431 339 q 325 366 353 339 q 298 433 298 394 q 325 500 298 472 q 392 528 353 528 m 316 303 q 368 281 347 303 q 390 229 390 260 q 233 -6 390 135 q 152 -85 168 -63 q 137 -132 137 -106 q 160 -184 137 -162 q 217 -206 184 -206 q 283 -180 255 -206 q 311 -121 311 -155 q 298 -67 311 -108 q 291 -27 291 -44 q 311 23 291 2 q 361 44 332 44 q 442 0 410 44 q 474 -107 474 -42 q 397 -288 474 -216 q 201 -360 320 -360 q 32 -297 100 -360 q -35 -143 -35 -235 q -5 -30 -35 -80 q 94 76 23 18 q 223 199 211 171 l 250 258 q 316 303 270 303 "},"ý":{"x_min":-185,"x_max":638,"ha":595,"o":"m 451 -28 l 529 -28 q 616 -88 616 -28 q 585 -152 616 -129 q 501 -176 555 -176 l 391 -176 q 320 -330 371 -234 q 59 -500 230 -500 q -114 -434 -43 -500 q -185 -273 -185 -369 q -146 -148 -185 -206 q -46 -61 -108 -90 q 166 -28 25 -28 l 276 -28 l 296 21 q 204 0 246 0 q 86 36 131 0 q 41 132 41 73 q 70 240 41 168 l 144 423 l 151 442 q 253 519 184 519 q 302 500 282 519 q 323 451 323 481 q 305 388 323 432 l 238 226 q 222 175 222 186 q 264 142 219 142 q 327 160 295 142 q 369 201 360 178 l 460 423 l 466 442 q 568 519 498 519 q 617 499 597 519 q 638 451 638 480 q 627 406 638 432 l 619 388 l 451 -28 m 229 -176 l 134 -176 q -22 -273 -22 -176 q 0 -329 -22 -308 q 56 -350 20 -350 q 144 -311 106 -350 q 229 -176 183 -272 m 523 660 l 440 594 q 388 571 410 571 q 356 584 370 571 q 342 617 342 598 q 344 631 342 624 l 350 644 l 375 712 q 439 757 392 757 l 478 757 q 547 703 547 757 q 523 660 547 678 "},"x":{"x_min":17,"x_max":554,"ha":474,"o":"m 311 383 l 387 470 q 482 528 438 528 q 533 508 513 528 q 554 458 554 488 q 500 363 554 416 l 384 248 l 440 117 l 446 103 q 454 70 454 86 q 427 14 454 39 q 367 -10 400 -10 q 304 39 327 -10 l 262 131 l 183 47 l 168 32 q 87 -10 128 -10 q 37 10 57 -10 q 17 60 17 30 q 68 150 17 97 l 189 274 l 136 395 q 124 443 124 426 q 150 501 124 475 q 210 528 177 528 q 274 471 251 528 l 311 383 "},"è":{"x_min":64,"x_max":590,"ha":552,"o":"m 226 199 q 303 146 226 146 l 504 146 q 590 86 590 146 q 559 22 590 45 q 475 0 529 0 l 283 0 q 120 52 176 0 q 64 207 64 105 q 152 433 64 338 q 363 528 241 528 q 506 481 452 528 q 560 359 560 435 q 485 224 560 268 q 362 199 444 199 l 226 199 m 259 322 l 333 322 q 404 353 406 322 q 357 390 401 390 q 259 322 294 390 m 382 717 l 410 652 q 419 616 419 633 q 405 583 419 597 q 372 570 391 570 q 327 587 350 570 l 246 647 q 208 705 208 675 q 223 743 208 728 q 263 759 239 759 l 313 759 q 382 717 363 759 "},"º":{"x_min":102,"x_max":631,"ha":500,"o":"m 473 843 q 587 799 543 843 q 631 687 631 756 q 606 580 631 634 q 543 495 582 527 q 408 459 500 459 q 314 478 341 459 q 254 606 254 522 q 320 772 254 701 q 473 843 386 843 m 460 731 q 401 697 428 731 q 375 621 375 663 q 430 572 375 572 q 488 601 465 572 q 512 675 512 631 q 460 731 512 731 m 170 390 l 472 390 q 542 338 542 390 q 472 286 542 286 l 170 286 l 159 286 q 117 300 133 286 q 102 338 102 315 q 159 390 102 390 l 170 390 "},"Ø":{"x_min":74,"x_max":934,"ha":781,"o":"m 878 737 q 896 616 896 689 q 744 159 896 363 q 588 19 678 70 q 406 -31 499 -31 q 202 54 273 -31 q 142 28 167 28 q 93 47 113 28 q 74 97 74 67 q 134 197 74 145 q 125 307 125 263 q 170 546 125 417 q 285 759 216 675 q 438 886 351 839 q 609 934 526 934 q 800 862 716 934 q 866 896 838 896 q 913 874 893 896 q 934 826 934 853 q 878 737 934 788 m 589 768 q 412 647 491 768 q 335 476 366 577 q 305 295 305 376 q 335 181 305 224 q 417 138 366 138 q 535 182 477 138 q 637 306 593 227 q 693 453 671 369 q 716 602 716 536 q 683 724 716 681 q 589 768 650 768 "},"∞":{"x_min":24,"x_max":903,"ha":926,"o":"m 467 360 q 246 248 367 248 q 86 311 148 248 q 24 475 24 375 q 87 634 24 571 q 248 697 151 697 q 459 584 362 697 q 679 697 553 697 q 840 633 777 697 q 903 472 903 570 q 839 310 903 373 q 676 247 776 247 q 467 360 560 247 m 548 472 q 654 393 601 393 q 710 415 687 393 q 734 472 734 438 q 710 527 734 504 q 653 551 687 551 q 548 472 600 551 m 379 472 q 272 551 326 551 q 216 528 239 551 q 193 472 193 505 q 216 417 193 440 q 273 394 240 394 q 379 472 327 394 "},"÷":{"x_min":134,"x_max":736,"ha":648,"o":"m 247 486 l 650 486 q 736 429 736 486 q 705 369 736 391 q 621 347 675 347 l 219 347 q 134 403 134 347 q 164 463 134 441 q 247 486 195 486 m 375 276 q 435 251 410 276 q 460 190 460 226 q 435 130 460 155 q 375 106 410 106 q 314 130 339 106 q 290 190 290 155 q 314 251 290 226 q 375 276 339 276 m 488 727 q 548 701 523 727 q 574 641 574 676 q 549 581 574 606 q 488 557 524 557 q 428 581 453 557 q 404 641 404 606 q 429 701 404 676 q 488 727 454 727 "},"h":{"x_min":50,"x_max":732,"ha":694,"o":"m 389 489 q 507 528 461 528 q 614 491 572 528 q 656 398 656 455 q 639 324 656 364 l 568 146 l 646 146 q 732 86 732 146 q 701 22 732 45 q 617 0 671 0 l 480 0 q 407 24 437 0 q 378 85 378 49 q 393 147 378 109 l 456 301 q 468 345 468 330 q 416 384 468 384 q 299 265 347 384 l 223 78 q 117 -10 187 -10 q 69 7 89 -10 q 50 50 50 25 q 60 95 50 69 l 67 113 l 362 841 q 468 935 401 935 q 516 916 496 935 q 536 871 536 897 q 518 806 536 849 l 389 489 "},".":{"x_min":102,"x_max":291,"ha":347,"o":"m 196 171 q 263 143 235 171 q 291 76 291 115 q 263 9 291 37 q 196 -18 235 -18 q 129 9 157 -18 q 102 76 102 37 q 129 143 102 115 q 196 171 157 171 "},";":{"x_min":68,"x_max":340,"ha":347,"o":"m 245 448 q 312 420 284 448 q 340 353 340 392 q 312 286 340 314 q 245 259 284 259 q 178 286 206 259 q 151 353 151 314 q 178 420 151 392 q 245 448 206 448 m 128 14 q 106 79 106 52 q 133 143 106 117 q 200 170 160 170 q 267 143 241 170 q 294 75 294 117 q 205 -60 294 12 q 106 -117 136 -117 q 68 -83 68 -117 q 85 -46 68 -70 l 99 -26 l 128 14 "},"f":{"x_min":-102,"x_max":783,"ha":467,"o":"m 438 519 l 531 519 q 618 459 618 519 q 587 395 618 418 q 503 373 557 373 l 378 373 l 74 -379 q -31 -473 36 -473 q -81 -454 -61 -473 q -102 -409 -102 -436 q -84 -344 -102 -389 l 206 373 l 160 373 q 74 431 74 373 q 104 495 74 472 q 188 519 134 519 l 265 519 l 352 731 q 456 881 395 837 q 618 926 516 926 l 695 926 q 783 867 783 926 q 752 803 783 826 q 667 780 721 780 l 647 780 q 557 756 590 780 q 501 677 524 733 l 438 519 "},"“":{"x_min":259,"x_max":675.046875,"ha":509,"o":"m 407 825 q 428 767 428 791 q 403 708 428 732 q 343 685 378 685 q 283 709 307 685 q 259 769 259 733 q 338 893 259 827 q 427 944 400 944 q 451 934 440 944 q 462 914 462 925 q 446 880 461 901 l 434 862 l 407 825 m 620 825 q 641 767 641 791 q 616 709 641 733 q 556 685 591 685 q 496 709 520 685 q 472 769 472 733 q 551 893 472 827 q 640 944 613 944 q 664 934 653 944 q 675 914 675 925 q 659 880 674 901 l 647 862 l 620 825 "},"A":{"x_min":-10,"x_max":1498,"ha":1450,"o":"m 1093 347 l 906 347 l 681 -41 q 304 -317 522 -317 q 80 -221 171 -317 q -10 16 -10 -125 q 59 238 -10 131 q 250 415 129 345 q 450 487 340 466 q 743 509 560 509 l 793 509 l 847 607 q 1120 881 958 813 q 1391 926 1224 926 q 1458 906 1434 926 q 1483 854 1483 887 q 1474 817 1483 838 l 1468 801 l 1352 509 l 1403 509 l 1421 509 q 1498 443 1498 509 q 1466 375 1498 403 q 1390 347 1435 347 l 1372 347 l 1286 347 l 1211 162 l 1321 162 l 1339 162 q 1415 96 1415 162 q 1383 28 1415 56 q 1308 0 1352 0 l 1289 0 l 1144 0 q 1049 30 1086 0 q 1013 108 1013 60 q 1040 214 1013 145 l 1093 347 m 1160 509 l 1258 750 q 1137 704 1186 745 q 1024 555 1087 663 l 996 509 l 1160 509 m 700 347 l 642 347 q 335 275 449 347 q 220 160 263 229 q 177 20 177 91 q 218 -89 177 -43 q 318 -135 259 -135 q 499 0 420 -135 l 700 347 "},"6":{"x_min":111,"x_max":675,"ha":648,"o":"m 453 561 q 488 565 477 565 q 621 503 567 565 q 675 353 675 442 q 578 97 675 204 q 347 -10 481 -10 q 176 53 241 -10 q 111 221 111 117 q 193 450 111 319 l 388 762 q 496 843 438 843 q 548 822 527 843 q 570 775 570 802 q 547 709 570 745 l 536 691 l 453 561 m 427 425 q 325 362 373 425 q 278 230 278 300 q 300 167 278 192 q 356 142 322 142 q 461 204 412 142 q 510 336 510 266 q 487 400 510 376 q 427 425 464 425 "},"‘":{"x_min":259,"x_max":462.046875,"ha":296,"o":"m 406 825 q 428 767 428 791 q 403 708 428 732 q 343 685 378 685 q 283 709 307 685 q 259 769 259 733 q 338 893 259 827 q 427 944 400 944 q 451 934 440 944 q 462 914 462 925 q 446 880 461 901 l 434 862 l 406 825 "},"π":{"x_min":51,"x_max":861,"ha":912,"o":"m 157 0 l 157 513 l 51 513 l 51 667 l 861 667 l 861 513 l 756 513 l 756 0 l 584 0 l 584 513 l 329 513 l 329 0 l 157 0 "},"O":{"x_min":82,"x_max":985,"ha":916,"o":"m 210 463 l 176 463 q 82 527 82 463 q 114 599 82 573 q 207 625 147 625 l 302 625 l 321 650 q 745 939 532 939 q 917 877 850 939 q 985 720 985 816 q 857 511 985 585 q 603 463 772 463 l 400 463 q 300 140 300 273 q 339 21 300 66 q 443 -23 378 -23 q 622 82 533 -23 q 754 347 711 188 l 765 387 q 854 471 787 471 q 913 444 890 471 q 936 376 936 418 q 821 62 936 243 q 439 -190 663 -190 q 211 -96 300 -190 q 123 142 123 -3 q 210 463 123 280 m 505 625 l 638 625 q 806 716 806 625 q 783 761 806 743 q 728 780 761 780 q 616 738 675 780 q 505 625 556 697 "},"n":{"x_min":50,"x_max":734,"ha":695,"o":"m 566 146 l 647 146 q 734 86 734 146 q 703 22 734 45 q 619 0 672 0 l 477 0 q 408 25 436 0 q 380 88 380 50 q 398 157 380 111 l 457 305 q 468 342 467 328 q 454 370 468 358 q 419 382 440 382 q 306 276 349 382 l 226 79 q 119 -10 190 -10 q 70 7 90 -10 q 50 51 50 25 q 60 96 50 70 l 68 114 l 205 453 q 295 519 231 519 q 370 472 347 519 q 508 528 442 528 q 613 491 572 528 q 655 397 655 454 q 640 329 655 366 l 566 146 "},"3":{"x_min":103,"x_max":754,"ha":648,"o":"m 565 508 q 670 316 670 438 q 617 134 670 222 q 353 -14 527 -14 q 171 46 240 -14 q 103 205 103 106 q 137 324 103 275 q 221 373 172 373 q 270 352 249 373 q 292 305 292 332 q 280 253 292 291 q 272 211 272 224 q 294 157 272 177 q 353 137 317 137 q 455 192 410 137 q 501 314 501 247 q 418 425 501 397 q 362 490 362 444 q 383 544 362 519 l 397 559 l 510 685 l 356 685 q 270 745 270 685 q 298 808 270 782 q 368 834 326 834 l 384 834 l 646 834 q 754 752 754 834 q 727 685 754 713 l 565 508 "},"9":{"x_min":178,"x_max":743,"ha":648,"o":"m 398 270 l 377 271 q 232 330 287 271 q 178 486 178 390 q 278 739 178 626 q 501 843 371 843 q 675 777 608 843 q 743 608 743 711 q 684 425 743 518 l 459 70 q 408 6 430 23 q 352 -10 385 -10 q 300 10 321 -10 q 279 57 279 30 q 313 143 279 91 l 398 270 m 492 693 q 392 629 440 693 q 344 496 344 565 q 366 436 344 460 q 423 412 389 412 q 527 474 478 412 q 576 606 576 536 q 552 668 576 643 q 492 693 528 693 "},"l":{"x_min":58,"x_max":527,"ha":369,"o":"m 245 146 l 316 146 q 403 86 403 146 q 372 22 403 45 q 288 0 342 0 l 166 0 q 87 23 116 0 q 58 87 58 47 q 77 157 58 108 l 351 831 l 358 850 q 458 926 390 926 q 507 906 487 926 q 527 861 527 887 q 516 815 527 841 l 509 796 l 245 146 "},"¤":{"x_min":85,"x_max":693,"ha":583,"o":"m 545 622 l 597 659 l 604 664 q 629 672 615 672 q 673 653 653 672 q 693 614 693 635 q 672 572 693 586 l 617 532 q 631 450 631 493 q 598 318 631 390 l 631 280 l 637 273 q 648 245 648 261 q 631 199 648 218 q 590 180 614 180 q 551 197 567 180 l 527 225 q 459 188 491 198 q 363 179 426 179 q 273 183 297 179 q 224 206 248 188 l 180 175 l 173 170 q 148 163 162 163 q 104 180 123 163 q 85 219 85 198 q 106 263 85 247 l 158 299 q 147 369 147 335 q 186 511 147 439 l 150 554 l 144 560 q 134 588 134 572 q 151 634 134 615 q 191 654 168 654 q 228 637 214 654 l 262 599 q 423 655 337 655 q 545 622 489 655 m 411 527 q 328 482 366 527 q 291 384 291 437 q 374 309 291 309 q 446 337 421 309 q 489 445 489 385 q 467 504 489 482 q 411 527 446 527 "},"":{"x_min":-102,"x_max":890,"ha":829,"o":"m 438 519 l 531 519 q 618 459 618 519 q 587 395 618 418 q 503 373 557 373 l 378 373 l 74 -379 q -31 -473 36 -473 q -81 -454 -61 -473 q -102 -409 -102 -436 q -84 -344 -102 -389 l 206 373 l 160 373 q 74 431 74 373 q 104 495 74 472 q 188 519 134 519 l 265 519 l 352 731 q 456 881 395 837 q 618 926 516 926 l 695 926 q 783 867 783 926 q 752 803 783 826 q 667 780 721 780 l 647 780 q 557 756 590 780 q 501 677 524 733 l 438 519 m 705 146 l 781 146 q 867 86 867 146 q 836 22 867 45 q 752 0 806 0 l 644 0 q 551 24 585 0 q 517 90 517 48 q 530 147 517 113 l 642 423 l 650 442 q 751 519 681 519 q 800 499 780 519 q 821 454 821 480 q 810 405 821 433 l 802 387 l 705 146 m 795 736 q 862 708 834 736 q 890 641 890 680 q 862 574 890 602 q 795 547 834 547 q 728 574 756 547 q 701 641 701 602 q 728 708 701 680 q 795 736 756 736 "},"∂":{"x_min":24,"x_max":669,"ha":695,"o":"m 90 775 l 112 923 q 354 866 258 906 q 523 749 450 825 q 669 366 669 600 q 580 90 669 194 q 344 -13 491 -13 q 117 79 211 -13 q 24 305 24 172 q 107 515 24 430 q 311 601 190 601 q 484 533 415 601 q 90 775 388 744 m 346 476 q 240 425 282 476 q 198 299 198 375 q 240 168 198 221 q 345 115 283 115 q 451 167 408 115 q 494 298 494 220 q 452 425 494 375 q 346 476 410 476 "},"4":{"x_min":93,"x_max":750,"ha":648,"o":"m 592 324 l 630 324 q 716 263 716 324 q 685 198 716 221 q 600 175 655 175 l 531 175 l 495 85 l 487 66 q 387 -10 455 -10 q 338 9 358 -10 q 318 55 318 28 q 335 121 318 77 l 357 175 l 217 175 q 126 202 159 175 q 93 278 93 229 q 123 357 93 323 l 149 385 l 487 747 q 646 843 577 843 q 720 814 691 843 q 750 744 750 786 q 729 663 750 714 l 592 324 m 418 324 l 541 601 l 293 324 l 418 324 "},"p":{"x_min":-139,"x_max":634,"ha":606,"o":"m 210 52 l 33 -382 q -73 -473 -2 -473 q -119 -455 -100 -473 q -139 -411 -139 -437 q -122 -348 -139 -390 l 204 457 q 291 519 229 519 q 359 478 334 519 q 475 528 406 528 q 590 474 546 528 q 634 332 634 420 q 530 60 634 165 q 460 12 496 25 q 360 0 424 0 q 264 9 290 0 q 210 52 238 19 m 266 191 q 298 152 283 161 q 347 144 313 144 q 422 179 395 144 q 477 329 477 252 q 414 395 477 395 q 316 315 346 395 q 311 300 313 306 l 266 191 "},"‡":{"x_min":43,"x_max":868,"ha":708,"o":"m 472 232 l 602 232 q 671 164 671 232 q 642 99 671 123 q 564 75 614 75 l 404 75 l 334 -98 q 282 -187 308 -162 q 217 -213 256 -213 q 143 -147 143 -213 q 153 -95 143 -123 l 223 75 l 115 75 q 63 93 83 75 q 43 140 43 112 q 160 232 43 232 l 286 232 l 424 573 l 307 573 q 258 592 278 573 q 239 640 239 611 q 269 706 239 683 q 356 730 300 730 l 483 730 l 543 878 q 649 972 580 972 q 703 951 681 972 q 725 900 725 931 q 710 837 725 873 l 668 730 l 798 730 q 868 662 868 730 q 839 597 868 621 q 761 573 811 573 l 605 573 l 472 232 "},"à":{"x_min":64,"x_max":687,"ha":649,"o":"m 526 146 l 601 146 q 687 87 687 146 q 656 23 687 46 q 572 0 625 0 l 485 0 q 406 45 427 0 q 307 0 355 0 l 230 0 q 109 53 155 0 q 64 192 64 106 q 153 425 64 322 q 357 528 243 528 q 484 467 444 528 q 573 519 518 519 q 622 499 602 519 q 643 452 643 480 q 632 407 643 433 l 624 388 l 526 146 m 280 146 l 297 146 q 371 191 353 146 l 419 307 q 429 345 429 330 q 410 377 429 364 q 367 391 392 391 q 270 333 317 391 q 224 215 224 276 q 280 146 224 146 m 430 717 l 458 652 q 467 616 467 633 q 453 583 467 597 q 420 570 439 570 q 375 587 398 570 l 294 647 q 256 705 256 675 q 271 743 256 728 q 311 759 287 759 l 361 759 q 430 717 411 759 "},"Ü":{"x_min":157,"x_max":1451,"ha":1186,"o":"m 1235 764 l 1019 231 q 888 35 964 96 q 702 -26 813 -26 q 520 38 594 -26 q 447 197 447 103 q 491 376 447 267 l 563 555 q 605 693 605 657 q 576 750 605 727 q 507 774 548 774 q 385 715 440 774 q 331 586 331 656 q 350 520 331 544 q 416 478 369 496 q 467 414 467 458 q 437 351 467 376 q 365 326 408 326 q 217 397 278 326 q 157 570 157 468 q 267 828 157 718 q 527 939 378 939 q 714 872 640 939 q 789 706 789 806 q 752 554 789 642 l 649 300 q 627 212 627 245 q 649 157 627 178 q 709 136 672 136 q 786 167 755 136 q 850 282 817 199 l 1074 832 q 1123 909 1097 892 q 1210 926 1148 926 l 1357 926 q 1451 862 1451 926 q 1418 789 1451 814 q 1325 764 1385 764 l 1235 764 m 1074 1159 q 1139 1133 1112 1159 q 1166 1068 1166 1106 q 1139 1002 1166 1029 q 1074 976 1112 976 q 1008 1002 1035 976 q 982 1068 982 1029 q 1008 1133 982 1106 q 1074 1159 1035 1159 m 796 1159 q 862 1133 835 1159 q 889 1068 889 1106 q 862 1002 889 1029 q 796 976 835 976 q 731 1002 758 976 q 705 1068 705 1029 q 731 1133 705 1106 q 796 1159 758 1159 "},"ó":{"x_min":65,"x_max":603,"ha":575,"o":"m 377 528 q 539 465 476 528 q 603 307 603 403 q 569 163 603 234 q 483 48 536 91 q 410 10 448 21 q 305 0 373 0 q 155 26 194 0 q 65 210 65 88 q 157 433 65 339 q 377 528 250 528 m 361 384 q 269 334 310 384 q 228 224 228 284 q 316 146 228 146 q 395 177 367 146 q 442 297 442 230 q 419 360 442 336 q 361 384 397 384 m 513 660 l 430 594 q 378 571 400 571 q 346 584 360 571 q 332 617 332 598 q 334 631 332 624 l 340 644 l 365 712 q 429 757 382 757 l 468 757 q 537 703 537 757 q 513 660 537 678 "},"√":{"x_min":0,"x_max":926,"ha":926,"o":"m 926 1154 l 926 994 l 675 994 l 438 0 l 212 0 l 129 381 l 0 381 l 0 541 l 270 541 l 298 412 q 319 176 313 338 l 333 176 q 400 623 348 402 l 526 1154 l 926 1154 "}}}
